<?xml version="1.0" encoding="UTF-8" standalone="no"?>
<!-- Created with Inkscape (http://www.inkscape.org/) -->

<svg
   xmlns:dc="http://purl.org/dc/elements/1.1/"
   xmlns:cc="http://creativecommons.org/ns#"
   xmlns:rdf="http://www.w3.org/1999/02/22-rdf-syntax-ns#"
   xmlns:svg="http://www.w3.org/2000/svg"
   xmlns="http://www.w3.org/2000/svg"
   xmlns:sodipodi="http://sodipodi.sourceforge.net/DTD/sodipodi-0.dtd"
   xmlns:inkscape="http://www.inkscape.org/namespaces/inkscape"
   width="1.6114508in"
   height="0.52809536in"
   viewBox="0 0 40.930852 13.413622"
   version="1.1"
   id="svg8"
   sodipodi:docname="line_logo_white_path.svg"
   inkscape:version="0.92.2 5c3e80d, 2017-08-06">
  <defs
     id="defs2" />
  <sodipodi:namedview
     id="base"
     pagecolor="#ffffff"
     bordercolor="#666666"
     borderopacity="1.0"
     inkscape:pageopacity="0.0"
     inkscape:pageshadow="2"
     inkscape:zoom="4.6571457"
     inkscape:cx="83.378065"
     inkscape:cy="27.797254"
     inkscape:document-units="mm"
     inkscape:current-layer="layer1"
     showgrid="false"
     inkscape:window-width="1440"
     inkscape:window-height="855"
     inkscape:window-x="119"
     inkscape:window-y="0"
     inkscape:window-maximized="0"
     fit-margin-top="0.1"
     fit-margin-left="0.1"
     fit-margin-right="0.1"
     fit-margin-bottom="0.1"
     units="in" />
  <metadata
     id="metadata5">
    <rdf:RDF>
      <cc:Work
         rdf:about="">
        <dc:format>image/svg+xml</dc:format>
        <dc:type
           rdf:resource="http://purl.org/dc/dcmitype/StillImage" />
        <dc:title></dc:title>
      </cc:Work>
    </rdf:RDF>
  </metadata>
  <g
     inkscape:label="Layer 1"
     inkscape:groupmode="layer"
     id="layer1"
     transform="translate(280.58976,-30.389879)">
    <path
       style="font-style:normal;font-weight:normal;font-size:medium;line-height:1.25;font-family:sans-serif;letter-spacing:0px;word-spacing:0px;fill:#ffffff;fill-opacity:1;stroke:none;stroke-width:0.99999994"
       d="M 93.132812 9.5996094 C 91.506457 9.5996094 90.170833 10.178586 89.126953 11.335938 C 88.267872 12.295351 87.771927 13.487442 87.625 14.904297 C 87.477297 14.864992 87.328515 14.81701 87.181641 14.785156 C 86.561345 14.648992 85.936424 14.580078 85.308594 14.580078 C 83.916745 14.580078 82.80255 14.956203 81.962891 15.705078 C 81.123256 16.44639 80.703125 17.428866 80.703125 18.654297 C 80.703125 19.108163 80.7971 19.574226 80.986328 20.050781 C 81.17543 20.519775 81.451367 20.992194 81.814453 21.46875 C 80.800834 22.217626 80.041966 23.018269 79.535156 23.873047 C 79.028347 24.720261 78.773438 25.629414 78.773438 26.597656 C 78.773438 28.224002 79.352424 29.557675 80.509766 30.601562 C 81.477642 31.468231 82.681776 31.969448 84.115234 32.111328 C 84.061015 32.304335 84.000506 32.497855 83.958984 32.689453 C 83.822921 33.309734 83.755859 33.932702 83.755859 34.560547 C 83.755859 35.952396 84.130031 37.068556 84.878906 37.908203 C 85.620223 38.747853 86.602701 39.167969 87.828125 39.167969 C 88.281996 39.167969 88.748061 39.073868 89.224609 38.884766 C 89.693598 38.695656 90.166005 38.419732 90.642578 38.056641 C 91.391454 39.07027 92.192097 39.831076 93.046875 40.337891 C 93.894069 40.844705 94.80322 41.097656 95.771484 41.097656 C 97.397815 41.097656 98.73151 40.51868 99.775391 39.361328 C 100.68709 38.343151 101.197 37.066574 101.30664 35.533203 C 101.40345 35.557334 101.50121 35.59041 101.59766 35.611328 C 102.21795 35.747492 102.84287 35.816406 103.4707 35.816406 C 104.86255 35.816406 105.97675 35.442235 106.81641 34.693359 C 107.65604 33.952048 108.07617 32.967621 108.07617 31.742188 C 108.07617 31.288324 107.9822 30.824214 107.79297 30.347656 C 107.60387 29.878665 107.32793 29.406246 106.96484 28.929688 C 107.97846 28.180812 108.73928 27.378213 109.24609 26.523438 C 109.75293 25.676224 110.00586 24.769023 110.00586 23.800781 C 110.00586 22.174435 109.4269 20.83881 108.26953 19.794922 C 107.34694 18.968804 106.20889 18.478113 104.86328 18.310547 C 104.88851 18.209813 104.92357 18.10816 104.94531 18.007812 C 105.08138 17.387532 105.14844 16.762611 105.14844 16.134766 C 105.14844 14.742917 104.77427 13.62871 104.02539 12.789062 C 103.2841 11.949413 102.30162 11.529297 101.07617 11.529297 C 100.62233 11.529297 100.15626 11.623398 99.679688 11.8125 C 99.210699 12.00161 98.738267 12.277533 98.261719 12.640625 C 97.512843 11.626996 96.710247 10.866189 95.855469 10.359375 C 95.00825 9.8525605 94.101052 9.5996094 93.132812 9.5996094 z M 30.037109 9.9882812 L 30.037109 14.949219 L 34.001953 14.949219 L 34.001953 12.445312 C 34.587684 13.384651 35.054571 14.294471 35.400391 15.173828 C 35.856126 16.345703 36.083984 17.445966 36.083984 18.474609 C 36.083984 19.880861 35.725936 21.007161 35.009766 21.853516 C 34.634737 22.30355 34.195654 22.629388 33.699219 22.84375 C 33.818183 22.245473 33.884766 21.57936 33.884766 20.828125 L 33.884766 17.820312 L 30.154297 17.820312 L 30.154297 20.222656 C 30.154297 20.899738 30.134758 21.433592 30.095703 21.824219 C 30.071886 22.062438 30.026624 22.237004 29.988281 22.431641 C 29.474359 22.103155 28.935713 21.642546 28.369141 21.033203 L 26.630859 19.275391 C 26.610234 19.253806 26.590845 19.238108 26.570312 19.216797 C 26.66449 18.79154 26.71875 18.359585 26.71875 17.916016 C 26.71875 15.845704 25.989593 14.179038 24.53125 12.916016 C 23.085959 11.652996 21.165374 11.021484 18.769531 11.021484 C 17.428378 11.021484 16.126299 11.203776 14.863281 11.568359 C 13.613291 11.932943 12.376306 12.486327 11.152344 13.228516 L 11.152344 16.306641 L 9.5996094 16.306641 L 9.5996094 20.271484 L 14.560547 20.271484 L 14.560547 16.306641 L 12.056641 16.306641 C 12.995976 15.720907 13.905799 15.254017 14.785156 14.908203 C 15.957037 14.452473 17.057301 14.224609 18.085938 14.224609 C 19.492199 14.224609 20.618507 14.582681 21.464844 15.298828 C 21.914886 15.673857 22.240713 16.112939 22.455078 16.609375 C 21.856802 16.490408 21.1907 16.423828 20.439453 16.423828 L 17.431641 16.423828 L 17.431641 20.154297 L 19.833984 20.154297 C 20.511049 20.154297 21.04492 20.173836 21.435547 20.212891 C 21.673768 20.236708 21.848332 20.281961 22.042969 20.320312 C 21.714483 20.834234 21.253885 21.37287 20.644531 21.939453 L 18.886719 23.677734 C 18.865134 23.69836 18.849436 23.717748 18.828125 23.738281 C 18.402991 23.644158 17.970777 23.589844 17.527344 23.589844 C 15.457019 23.589844 13.790361 24.319011 12.527344 25.777344 C 11.264326 27.222658 10.632812 29.14323 10.632812 31.539062 C 10.632813 32.880208 10.815114 34.18229 11.179688 35.445312 C 11.544286 36.695311 12.097671 37.93229 12.839844 39.15625 L 15.917969 39.15625 L 15.917969 40.708984 L 19.882812 40.708984 L 19.882812 35.748047 L 15.917969 35.748047 L 15.917969 38.251953 C 15.332238 37.312615 14.865351 36.402795 14.519531 35.523438 C 14.063796 34.351562 13.835938 33.2513 13.835938 32.222656 C 13.835938 30.816405 14.194011 29.690105 14.910156 28.84375 C 15.285185 28.393716 15.724261 28.067877 16.220703 27.853516 C 16.101739 28.451793 16.035156 29.117906 16.035156 29.869141 L 16.035156 32.876953 L 19.765625 32.876953 L 19.765625 30.474609 C 19.765625 29.797527 19.785164 29.263671 19.824219 28.873047 C 19.848036 28.634826 19.893298 28.460262 19.931641 28.265625 C 20.445562 28.594111 20.984208 29.05472 21.550781 29.664062 L 23.289062 31.421875 C 23.309688 31.44346 23.329076 31.459158 23.349609 31.480469 C 23.255489 31.905601 23.201172 32.337815 23.201172 32.78125 C 23.201172 34.851564 23.930329 36.51823 25.388672 37.78125 C 26.833963 39.04427 28.754548 39.675781 31.150391 39.675781 C 32.491543 39.675781 33.793623 39.49349 35.056641 39.128906 C 36.306631 38.764323 37.543616 38.210936 38.767578 37.46875 L 38.767578 34.390625 L 40.320312 34.390625 L 40.320312 30.425781 L 35.359375 30.425781 L 35.359375 34.390625 L 37.863281 34.390625 C 36.923946 34.976358 36.014123 35.443249 35.134766 35.789062 C 33.962885 36.244793 32.862621 36.472656 31.833984 36.472656 C 30.427723 36.472656 29.301415 36.114582 28.455078 35.398438 C 28.005036 35.023408 27.679209 34.584327 27.464844 34.087891 C 28.06312 34.206858 28.729222 34.273438 29.480469 34.273438 L 32.488281 34.273438 L 32.488281 30.542969 L 30.085938 30.542969 C 29.408873 30.542969 28.875002 30.52343 28.484375 30.484375 C 28.246154 30.460557 28.07159 30.415305 27.876953 30.376953 C 28.205439 29.863031 28.666037 29.324396 29.275391 28.757812 L 31.033203 27.019531 C 31.054788 26.998906 31.070486 26.979517 31.091797 26.958984 C 31.517055 27.053165 31.949009 27.107422 32.392578 27.107422 C 34.462903 27.107422 36.129561 26.378255 37.392578 24.919922 C 38.655595 23.474608 39.287109 21.554036 39.287109 19.158203 C 39.287109 17.817058 39.104833 16.514975 38.740234 15.251953 C 38.375661 14.001955 37.822251 12.764975 37.080078 11.541016 L 34.001953 11.541016 L 34.001953 9.9882812 L 30.037109 9.9882812 z M 126.15234 10.003906 L 126.15234 17.662109 L 125.38672 17.662109 L 125.38672 15.654297 L 122.06641 15.654297 L 122.06641 17.662109 L 114.4082 17.662109 L 114.4082 20.982422 L 122.06641 20.982422 L 122.06641 21.746094 L 120.06055 21.746094 L 120.06055 25.027344 L 122.06641 25.027344 L 122.06641 25.669922 L 114.4082 25.669922 L 114.4082 28.951172 L 122.06641 28.951172 L 122.06641 29.714844 L 120.06055 29.714844 L 120.06055 33.035156 L 122.06641 33.035156 L 122.06641 40.693359 L 125.38672 40.693359 L 125.38672 33.035156 L 126.15234 33.035156 L 126.15234 35.042969 L 129.43359 35.042969 L 129.43359 33.035156 L 130.07422 33.035156 L 130.07422 40.693359 L 133.35547 40.693359 L 133.35547 33.035156 L 134.12109 33.035156 L 134.12109 35.042969 L 137.44141 35.042969 L 137.44141 33.035156 L 145.09961 33.035156 L 145.09961 29.714844 L 137.44141 29.714844 L 137.44141 28.951172 L 139.44727 28.951172 L 139.44727 25.669922 L 137.44141 25.669922 L 137.44141 25.027344 L 145.09961 25.027344 L 145.09961 21.746094 L 137.44141 21.746094 L 137.44141 20.982422 L 139.44727 20.982422 L 139.44727 17.662109 L 137.44141 17.662109 L 137.44141 10.003906 L 134.12109 10.003906 L 134.12109 17.662109 L 133.35547 17.662109 L 133.35547 15.654297 L 130.07422 15.654297 L 130.07422 17.662109 L 129.43359 17.662109 L 129.43359 10.003906 L 126.15234 10.003906 z M 52.818359 10.525391 L 52.818359 23.318359 L 53.099609 28.113281 L 44.724609 28.113281 L 44.724609 32.078125 L 57.517578 32.078125 L 62.310547 31.796875 L 62.310547 40.171875 L 66.275391 40.171875 L 66.275391 27.378906 L 65.994141 22.583984 L 74.371094 22.583984 L 74.371094 18.619141 L 61.578125 18.619141 L 56.783203 18.900391 L 56.783203 10.525391 L 52.818359 10.525391 z M 62.310547 11.011719 L 62.310547 15.972656 L 66.275391 15.972656 L 66.275391 11.011719 L 62.310547 11.011719 z M 93.269531 11.789062 C 93.935207 11.789062 94.570628 11.94792 95.175781 12.265625 C 95.788493 12.590894 96.40096 13.098749 97.013672 13.787109 L 90.851562 19.800781 C 90.367531 19.24858 90.005814 18.659095 89.763672 18.03125 C 89.529089 17.403405 89.412109 16.730335 89.412109 16.011719 C 89.412109 14.801416 89.777961 13.794014 90.511719 12.992188 C 91.245451 12.190361 92.165128 11.789062 93.269531 11.789062 z M 101.09766 13.685547 C 101.76331 13.685547 102.30465 13.930189 102.7207 14.421875 C 103.14431 14.921125 103.35742 15.569019 103.35742 16.363281 C 103.35742 16.87766 103.26149 17.433664 103.07227 18.03125 C 103.04738 18.11316 103.00862 18.200156 102.98047 18.283203 C 102.29406 18.348933 101.63947 18.494677 101.01953 18.728516 C 100.15717 19.061348 99.331618 19.565049 98.544922 20.238281 L 96.923828 18.570312 L 95.025391 18.570312 L 98.285156 15.386719 C 98.996211 14.698351 99.543899 14.240595 99.929688 14.013672 C 100.32304 13.794308 100.71187 13.685547 101.09766 13.685547 z M 85.537109 16.373047 C 86.051478 16.373047 86.607484 16.469101 87.205078 16.658203 C 87.346723 16.701234 87.495581 16.763601 87.640625 16.816406 C 87.714505 17.4325 87.848732 18.024378 88.060547 18.585938 C 88.393372 19.44828 88.897078 20.273848 89.570312 21.060547 L 87.902344 22.683594 L 87.902344 24.867188 L 84.560547 21.445312 C 83.87227 20.73426 83.414524 20.186565 83.1875 19.800781 C 82.968035 19.407431 82.859375 19.016643 82.859375 18.630859 C 82.859375 17.965194 83.104012 17.425808 83.595703 17.009766 C 84.094954 16.586159 84.742854 16.373047 85.537109 16.373047 z M 45.210938 18.619141 L 45.210938 22.583984 L 50.171875 22.583984 L 50.171875 18.619141 L 45.210938 18.619141 z M 94.535156 19.050781 L 97.228516 21.802734 C 97.032792 22.067906 96.853358 22.334634 96.681641 22.601562 C 95.934668 22.539786 95.216146 22.414366 94.539062 22.195312 C 93.775069 21.945687 93.058 21.59669 92.384766 21.150391 L 94.535156 19.050781 z M 103.59375 20.078125 C 104.80406 20.078125 105.81147 20.44594 106.61328 21.179688 C 107.41512 21.913435 107.81641 22.831146 107.81641 23.935547 C 107.81641 24.601215 107.65755 25.236647 107.33984 25.841797 C 107.01458 26.454514 106.50674 27.068924 105.81836 27.681641 L 99.804688 21.519531 C 100.35688 21.035414 100.94636 20.671754 101.57422 20.429688 C 102.20207 20.19518 102.87514 20.078125 103.59375 20.078125 z M 125.38672 20.982422 L 126.15234 20.982422 L 126.15234 21.746094 L 125.38672 21.746094 L 125.38672 20.982422 z M 129.43359 20.982422 L 130.07422 20.982422 L 130.07422 21.746094 L 129.43359 21.746094 L 129.43359 20.982422 z M 133.35547 20.982422 L 134.12109 20.982422 L 134.12109 21.746094 L 133.35547 21.746094 L 133.35547 20.982422 z M 24.9375 22.291016 L 26.552734 23.943359 C 27.066771 24.481312 27.552928 24.936388 28.017578 25.326172 L 26.365234 26.941406 C 25.827278 27.455451 25.37221 27.941595 24.982422 28.40625 L 23.367188 26.753906 C 22.853151 26.215953 22.366994 25.760878 21.902344 25.371094 L 23.554688 23.755859 C 24.092644 23.241815 24.547712 22.75567 24.9375 22.291016 z M 56.783203 22.314453 L 61.578125 22.583984 L 62.580078 22.583984 L 62.310547 27.378906 L 62.310547 28.380859 L 57.517578 28.113281 L 56.513672 28.113281 L 56.783203 23.318359 L 56.783203 22.314453 z M 91.136719 22.376953 C 91.356952 22.539509 91.577381 22.691894 91.798828 22.837891 C 91.747552 23.662681 91.608966 24.448399 91.369141 25.189453 C 91.119515 25.953457 90.770531 26.672471 90.324219 27.345703 L 88.240234 25.210938 L 91.136719 22.376953 z M 82.960938 22.716797 L 88.974609 28.876953 C 88.42242 29.36107 87.832933 29.724731 87.205078 29.966797 C 86.577248 30.201304 85.904186 30.318359 85.185547 30.318359 C 83.975241 30.318359 82.96783 29.952497 82.166016 29.21875 C 81.364176 28.485003 80.964844 27.565338 80.964844 26.460938 C 80.964844 25.795269 81.123699 25.15984 81.441406 24.554688 C 81.766698 23.941971 82.272585 23.329511 82.960938 22.716797 z M 98.455078 23.050781 L 100.75 25.400391 L 97.767578 28.320312 C 97.440227 28.078698 97.111276 27.863234 96.78125 27.658203 L 96.96875 27.658203 C 97.014054 26.795861 97.160455 25.978599 97.410156 25.207031 C 97.659781 24.443027 98.008766 23.724013 98.455078 23.050781 z M 93.742188 23.894531 C 93.837795 23.936149 93.93347 23.982857 94.029297 24.021484 C 94.568501 24.238834 95.112067 24.40433 95.658203 24.529297 C 95.634584 24.585276 95.60658 24.641211 95.583984 24.697266 C 95.313171 25.368965 95.119566 26.046064 94.992188 26.728516 C 94.952911 26.712165 94.914314 26.691629 94.875 26.675781 C 94.258081 26.427112 93.635748 26.246885 93.009766 26.119141 C 93.072536 25.979703 93.138917 25.841076 93.195312 25.701172 C 93.436308 25.103433 93.61478 24.500786 93.742188 23.894531 z M 125.38672 25.027344 L 126.15234 25.027344 L 126.15234 25.669922 L 125.38672 25.669922 L 125.38672 25.027344 z M 129.43359 25.027344 L 130.07422 25.027344 L 130.07422 25.669922 L 129.43359 25.669922 L 129.43359 25.027344 z M 133.35547 25.027344 L 134.12109 25.027344 L 134.12109 25.669922 L 133.35547 25.669922 L 133.35547 25.027344 z M 101.00195 25.658203 L 104.21875 28.951172 C 104.90703 29.662224 105.36477 30.211872 105.5918 30.597656 C 105.81126 30.991004 105.92188 31.379841 105.92188 31.765625 C 105.92188 32.431293 105.67529 32.972629 105.18359 33.388672 C 104.68434 33.812276 104.03644 34.023438 103.24219 34.023438 C 102.72782 34.023438 102.17181 33.929337 101.57422 33.740234 C 101.46228 33.70623 101.34453 33.65339 101.23047 33.613281 C 101.1502 33.093402 101.02481 32.591359 100.84375 32.111328 C 100.51092 31.248986 100.00722 30.423417 99.333984 29.636719 L 101.00195 28.013672 L 101.00195 25.658203 z M 91.919922 28.060547 C 92.780093 28.106296 93.593502 28.252902 94.363281 28.501953 C 95.1273 28.751578 95.846297 29.100576 96.519531 29.546875 L 94.457031 31.5625 L 91.550781 28.59375 C 91.681454 28.416711 91.79995 28.238369 91.919922 28.060547 z M 68.923828 28.113281 L 68.923828 32.078125 L 73.884766 32.078125 L 73.884766 28.113281 L 68.923828 28.113281 z M 125.38672 28.951172 L 126.15234 28.951172 L 126.15234 29.714844 L 125.38672 29.714844 L 125.38672 28.951172 z M 129.43359 28.951172 L 130.07422 28.951172 L 130.07422 29.714844 L 129.43359 29.714844 L 129.43359 28.951172 z M 133.35547 28.951172 L 134.12109 28.951172 L 134.12109 29.714844 L 133.35547 29.714844 L 133.35547 28.951172 z M 90.234375 30.160156 L 91.857422 31.828125 L 94.183594 31.828125 L 90.619141 35.310547 C 89.908086 35.998915 89.360373 36.456671 88.974609 36.683594 C 88.581236 36.902958 88.190451 37.011719 87.804688 37.011719 C 87.139012 37.011719 86.599644 36.767077 86.183594 36.275391 C 85.759984 35.77614 85.546875 35.128247 85.546875 34.333984 C 85.546875 33.819606 85.642803 33.263602 85.832031 32.666016 C 85.889581 32.476579 85.969888 32.279502 86.044922 32.083984 C 86.641204 32.008328 87.214818 31.873514 87.759766 31.667969 C 88.622103 31.335136 89.447679 30.833388 90.234375 30.160156 z M 98.050781 30.896484 C 98.534838 31.448686 98.898483 32.038171 99.140625 32.666016 C 99.375208 33.293861 99.492188 33.96693 99.492188 34.685547 C 99.492188 35.89585 99.12631 36.903251 98.392578 37.705078 C 97.658821 38.506905 96.739169 38.908203 95.634766 38.908203 C 94.96909 38.908203 94.333668 38.749345 93.728516 38.431641 C 93.115804 38.106372 92.503337 37.598517 91.890625 36.910156 L 98.050781 30.896484 z M 52.818359 34.724609 L 52.818359 39.685547 L 56.783203 39.685547 L 56.783203 34.724609 L 52.818359 34.724609 z "
       transform="matrix(0.26458333,0,0,0.26458333,-280.58976,30.389879)"
       id="path3315" />
  </g>
</svg>
