<?xml version="1.0" encoding="UTF-8" standalone="no"?>
<!-- Created with Inkscape (http://www.inkscape.org/) -->

<svg
   xmlns:dc="http://purl.org/dc/elements/1.1/"
   xmlns:cc="http://creativecommons.org/ns#"
   xmlns:rdf="http://www.w3.org/1999/02/22-rdf-syntax-ns#"
   xmlns:svg="http://www.w3.org/2000/svg"
   xmlns="http://www.w3.org/2000/svg"
   xmlns:sodipodi="http://sodipodi.sourceforge.net/DTD/sodipodi-0.dtd"
   xmlns:inkscape="http://www.inkscape.org/namespaces/inkscape"
   width="1in"
   height="1in"
   viewBox="0 0 25.400001 25.4"
   version="1.1"
   id="svg8"
   sodipodi:docname="logo_white_path.svg"
   inkscape:version="0.92.2 5c3e80d, 2017-08-06">
  <defs
     id="defs2" />
  <sodipodi:namedview
     id="base"
     pagecolor="#ffffff"
     bordercolor="#666666"
     borderopacity="1.0"
     inkscape:pageopacity="0.0"
     inkscape:pageshadow="2"
     inkscape:zoom="3.7631878"
     inkscape:cx="33.525346"
     inkscape:cy="12.220095"
     inkscape:document-units="mm"
     inkscape:current-layer="layer1"
     showgrid="false"
     inkscape:window-width="1440"
     inkscape:window-height="855"
     inkscape:window-x="0"
     inkscape:window-y="1"
     inkscape:window-maximized="1"
     fit-margin-top="0"
     fit-margin-left="0"
     fit-margin-right="0"
     fit-margin-bottom="0"
     units="in" />
  <metadata
     id="metadata5">
    <rdf:RDF>
      <cc:Work
         rdf:about="">
        <dc:format>image/svg+xml</dc:format>
        <dc:type
           rdf:resource="http://purl.org/dc/dcmitype/StillImage" />
        <dc:title></dc:title>
      </cc:Work>
    </rdf:RDF>
  </metadata>
  <g
     inkscape:label="Layer 1"
     inkscape:groupmode="layer"
     id="layer1"
     transform="translate(263.61495,-23.134222)">
    <path
       style="font-style:normal;font-weight:normal;font-size:medium;line-height:1.25;font-family:sans-serif;letter-spacing:0px;word-spacing:0px;fill:#ffffff;fill-opacity:1;stroke:none;stroke-width:0.99999994"
       d="M 35.779297 2.9199219 L 35.779297 7.8808594 L 39.744141 7.8808594 L 39.744141 5.3769531 C 40.329882 6.3162914 40.796778 7.2261112 41.142578 8.1054688 C 41.598314 9.277344 41.826172 10.377604 41.826172 11.40625 C 41.826172 12.812499 41.468098 13.938802 40.751953 14.785156 C 40.376925 15.23519 39.937842 15.561029 39.441406 15.775391 C 39.560395 15.177084 39.626953 14.511051 39.626953 13.759766 L 39.626953 10.751953 L 35.896484 10.751953 L 35.896484 13.154297 C 35.896484 13.831382 35.876946 14.365235 35.837891 14.755859 C 35.814073 14.994079 35.768811 15.168644 35.730469 15.363281 C 35.216852 15.034827 34.677543 14.573781 34.111328 13.964844 L 32.373047 12.207031 C 32.352421 12.185446 32.333033 12.169748 32.3125 12.148438 C 32.406683 11.72318 32.460938 11.291226 32.460938 10.847656 C 32.460938 8.7773444 31.731781 7.1106761 30.273438 5.8476562 C 28.828121 4.5846339 26.907536 3.953125 24.511719 3.953125 C 23.170566 3.953125 21.868486 4.1354167 20.605469 4.5 C 19.355453 4.8645833 18.118493 5.4179679 16.894531 6.1601562 L 16.894531 9.2382812 L 15.341797 9.2382812 L 15.341797 13.203125 L 20.302734 13.203125 L 20.302734 9.2382812 L 17.798828 9.2382812 C 18.738178 8.6525483 19.647986 8.1856596 20.527344 7.8398438 C 21.699199 7.3841159 22.799464 7.15625 23.828125 7.15625 C 25.234361 7.15625 26.360669 7.5143239 27.207031 8.2304688 C 27.65706 8.6054985 27.982906 9.0445793 28.197266 9.5410156 C 27.598987 9.4220482 26.932873 9.3554688 26.181641 9.3554688 L 23.173828 9.3554688 L 23.173828 13.085938 L 25.576172 13.085938 C 26.253262 13.085938 26.787108 13.105476 27.177734 13.144531 C 27.415956 13.168349 27.590519 13.213601 27.785156 13.251953 C 27.456657 13.765877 26.996051 14.304511 26.386719 14.871094 L 24.628906 16.609375 C 24.607321 16.630001 24.591624 16.649389 24.570312 16.669922 C 24.145652 16.576018 23.71246 16.521484 23.269531 16.521484 C 21.199232 16.521484 19.532549 17.250651 18.269531 18.708984 C 17.006514 20.154296 16.375 22.074871 16.375 24.470703 C 16.375 25.811851 16.557302 27.113933 16.921875 28.376953 C 17.286448 29.626954 17.839833 30.863933 18.582031 32.087891 L 21.660156 32.087891 L 21.660156 33.640625 L 25.625 33.640625 L 25.625 28.679688 L 21.660156 28.679688 L 21.660156 31.183594 C 21.074415 30.244257 20.607519 29.334436 20.261719 28.455078 C 19.805983 27.283203 19.578125 26.182943 19.578125 25.154297 C 19.578125 23.748046 19.936199 22.621743 20.652344 21.775391 C 21.027372 21.325355 21.466455 20.999519 21.962891 20.785156 C 21.843926 21.383433 21.777344 22.049546 21.777344 22.800781 L 21.777344 25.808594 L 25.507812 25.808594 L 25.507812 23.40625 C 25.507812 22.729165 25.527351 22.195312 25.566406 21.804688 C 25.590224 21.566468 25.635486 21.391903 25.673828 21.197266 C 26.187754 21.525752 26.726375 21.986358 27.292969 22.595703 L 29.03125 24.353516 C 29.052211 24.375452 29.070931 24.392409 29.091797 24.414062 C 28.99796 24.838573 28.943359 25.270135 28.943359 25.712891 C 28.943359 27.783202 29.672516 29.449871 31.130859 30.712891 C 32.576176 31.975913 34.496736 32.607422 36.892578 32.607422 C 38.233706 32.607422 39.535811 32.42513 40.798828 32.060547 C 42.048844 31.695964 43.285803 31.142579 44.509766 30.400391 L 44.509766 27.322266 L 46.0625 27.322266 L 46.0625 23.357422 L 41.101562 23.357422 L 41.101562 27.322266 L 43.605469 27.322266 C 42.666119 27.907999 41.756311 28.374887 40.876953 28.720703 C 39.705098 29.176431 38.604833 29.404297 37.576172 29.404297 C 36.169936 29.404297 35.043628 29.046223 34.197266 28.330078 C 33.747237 27.955048 33.42139 27.515968 33.207031 27.019531 C 33.805444 27.138571 34.471197 27.205078 35.222656 27.205078 L 38.230469 27.205078 L 38.230469 23.474609 L 35.828125 23.474609 C 35.151035 23.474609 34.617189 23.455071 34.226562 23.416016 C 33.988341 23.392198 33.813778 23.346946 33.619141 23.308594 C 33.947623 22.79467 34.408246 22.256036 35.017578 21.689453 L 36.775391 19.951172 C 36.796976 19.930546 36.812673 19.911158 36.833984 19.890625 C 37.259242 19.984805 37.691197 20.039062 38.134766 20.039062 C 40.205065 20.039062 41.871748 19.309896 43.134766 17.851562 C 44.397783 16.406251 45.029297 14.485679 45.029297 12.089844 C 45.029297 10.748699 44.846995 9.4466136 44.482422 8.1835938 C 44.117849 6.9335931 43.564464 5.6966159 42.822266 4.4726562 L 39.744141 4.4726562 L 39.744141 2.9199219 L 35.779297 2.9199219 z M 58.869141 3.4570312 L 58.869141 16.25 L 59.150391 21.044922 L 50.773438 21.044922 L 50.773438 25.009766 L 63.566406 25.009766 L 68.361328 24.728516 L 68.361328 33.103516 L 72.326172 33.103516 L 72.326172 20.310547 L 72.044922 15.515625 L 80.419922 15.515625 L 80.419922 11.550781 L 67.626953 11.550781 L 62.833984 11.832031 L 62.833984 3.4570312 L 58.869141 3.4570312 z M 68.361328 3.9433594 L 68.361328 8.9042969 L 72.326172 8.9042969 L 72.326172 3.9433594 L 68.361328 3.9433594 z M 51.259766 11.550781 L 51.259766 15.515625 L 56.220703 15.515625 L 56.220703 11.550781 L 51.259766 11.550781 z M 30.679688 15.222656 L 32.294922 16.875 C 32.80897 17.412954 33.295109 17.868029 33.759766 18.257812 L 32.107422 19.873047 C 31.569477 20.387093 31.114391 20.873236 30.724609 21.337891 L 29.109375 19.685547 C 28.595327 19.147593 28.109188 18.692518 27.644531 18.302734 L 29.296875 16.6875 C 29.834771 16.173512 30.289932 15.687265 30.679688 15.222656 z M 62.833984 15.248047 L 67.626953 15.515625 L 68.630859 15.515625 L 68.361328 20.310547 L 68.361328 21.314453 L 63.566406 21.044922 L 62.564453 21.044922 L 62.833984 16.25 L 62.833984 15.248047 z M 74.972656 21.044922 L 74.972656 25.009766 L 79.933594 25.009766 L 79.933594 21.044922 L 74.972656 21.044922 z M 58.869141 27.65625 L 58.869141 32.617188 L 62.833984 32.617188 L 62.833984 27.65625 L 58.869141 27.65625 z M 29.445312 37.023438 C 27.818957 37.023438 26.483333 37.602414 25.439453 38.759766 C 24.57998 39.719617 24.084169 40.910414 23.9375 42.328125 C 23.78972 42.288795 23.641091 42.240855 23.494141 42.208984 C 22.873845 42.072821 22.250877 42.003906 21.623047 42.003906 C 20.231198 42.003906 19.11505 42.378078 18.275391 43.126953 C 17.435756 43.868265 17.015625 44.852691 17.015625 46.078125 C 17.015625 46.531988 17.1096 46.996101 17.298828 47.472656 C 17.48793 47.94165 17.763867 48.414067 18.126953 48.890625 C 17.113334 49.639498 16.354466 50.442097 15.847656 51.296875 C 15.340847 52.144089 15.085938 53.051289 15.085938 54.019531 C 15.085938 55.645877 15.664924 56.981503 16.822266 58.025391 C 17.790142 58.892059 18.994276 59.391323 20.427734 59.533203 C 20.373515 59.72621 20.313006 59.91973 20.271484 60.111328 C 20.135421 60.731609 20.068359 61.35653 20.068359 61.984375 C 20.068359 63.376224 20.442531 64.492384 21.191406 65.332031 C 21.932723 66.171681 22.915201 66.591797 24.140625 66.591797 C 24.594496 66.591797 25.060561 66.495743 25.537109 66.306641 C 26.006098 66.117531 26.478505 65.841607 26.955078 65.478516 C 27.703954 66.492145 28.50655 67.252951 29.361328 67.759766 C 30.208522 68.26658 31.11572 68.519531 32.083984 68.519531 C 33.710315 68.519531 35.045963 67.940555 36.089844 66.783203 C 37.001543 65.765026 37.509505 64.490402 37.619141 62.957031 C 37.715898 62.981148 37.813756 63.014249 37.910156 63.035156 C 38.530452 63.17132 39.155373 63.240234 39.783203 63.240234 C 41.175052 63.240234 42.2912 62.86411 43.130859 62.115234 C 43.970494 61.373923 44.388672 60.391449 44.388672 59.166016 C 44.388672 58.712152 44.294697 58.246089 44.105469 57.769531 C 43.916366 57.30054 43.64043 56.828121 43.277344 56.351562 C 44.290963 55.602687 45.051784 54.802041 45.558594 53.947266 C 46.065428 53.100052 46.318359 52.190898 46.318359 51.222656 C 46.318359 49.59631 45.739398 48.262638 44.582031 47.21875 C 43.65944 46.392632 42.52139 45.899988 41.175781 45.732422 C 41.200839 45.632296 41.236196 45.531385 41.257812 45.431641 C 41.393875 44.81136 41.460938 44.186439 41.460938 43.558594 C 41.460938 42.166745 41.086766 41.050585 40.337891 40.210938 C 39.596599 39.371288 38.614121 38.951172 37.388672 38.951172 C 36.934826 38.951172 36.468761 39.047226 35.992188 39.236328 C 35.523199 39.425438 35.050767 39.701361 34.574219 40.064453 C 33.825343 39.050824 33.022747 38.290018 32.167969 37.783203 C 31.32075 37.276389 30.413552 37.023438 29.445312 37.023438 z M 61.996094 37.425781 L 61.996094 45.083984 L 61.230469 45.083984 L 61.230469 43.078125 L 57.910156 43.078125 L 57.910156 45.083984 L 50.251953 45.083984 L 50.251953 48.404297 L 57.910156 48.404297 L 57.910156 49.169922 L 55.904297 49.169922 L 55.904297 52.451172 L 57.910156 52.451172 L 57.910156 53.091797 L 50.251953 53.091797 L 50.251953 56.373047 L 57.910156 56.373047 L 57.910156 57.138672 L 55.904297 57.138672 L 55.904297 60.458984 L 57.910156 60.458984 L 57.910156 68.117188 L 61.230469 68.117188 L 61.230469 60.458984 L 61.996094 60.458984 L 61.996094 62.464844 L 65.277344 62.464844 L 65.277344 60.458984 L 65.917969 60.458984 L 65.917969 68.117188 L 69.199219 68.117188 L 69.199219 60.458984 L 69.964844 60.458984 L 69.964844 62.464844 L 73.285156 62.464844 L 73.285156 60.458984 L 80.943359 60.458984 L 80.943359 57.138672 L 73.285156 57.138672 L 73.285156 56.373047 L 75.291016 56.373047 L 75.291016 53.091797 L 73.285156 53.091797 L 73.285156 52.451172 L 80.943359 52.451172 L 80.943359 49.169922 L 73.285156 49.169922 L 73.285156 48.404297 L 75.291016 48.404297 L 75.291016 45.083984 L 73.285156 45.083984 L 73.285156 37.425781 L 69.964844 37.425781 L 69.964844 45.083984 L 69.199219 45.083984 L 69.199219 43.078125 L 65.917969 43.078125 L 65.917969 45.083984 L 65.277344 45.083984 L 65.277344 37.425781 L 61.996094 37.425781 z M 29.582031 39.212891 C 30.247707 39.212891 30.883128 39.371749 31.488281 39.689453 C 32.100993 40.014722 32.71346 40.520624 33.326172 41.208984 L 27.166016 47.222656 C 26.681984 46.670457 26.318314 46.08097 26.076172 45.453125 C 25.841589 44.82528 25.724609 44.152213 25.724609 43.433594 C 25.724609 42.223291 26.090461 41.217842 26.824219 40.416016 C 27.557951 39.614189 28.477628 39.212891 29.582031 39.212891 z M 37.412109 41.107422 C 38.07776 41.107422 38.617153 41.354017 39.033203 41.845703 C 39.456813 42.344954 39.669922 42.990894 39.669922 43.785156 C 39.669922 44.299535 39.573994 44.855536 39.384766 45.453125 C 39.359928 45.534882 39.321062 45.622189 39.292969 45.705078 C 38.60656 45.770808 37.951973 45.916552 37.332031 46.150391 C 36.469669 46.483223 35.644118 46.986924 34.857422 47.660156 L 33.236328 45.992188 L 31.339844 45.992188 L 34.597656 42.810547 C 35.308711 42.122179 35.856399 41.664423 36.242188 41.4375 C 36.635536 41.218136 37.02632 41.107422 37.412109 41.107422 z M 21.849609 43.796875 C 22.363978 43.796875 22.919984 43.890976 23.517578 44.080078 C 23.659331 44.123142 23.807969 44.187381 23.953125 44.240234 C 24.027005 44.856328 24.161232 45.448206 24.373047 46.009766 C 24.705872 46.872108 25.209578 47.695723 25.882812 48.482422 L 24.214844 50.105469 L 24.214844 52.291016 L 20.873047 48.869141 C 20.18477 48.158088 19.727024 47.60844 19.5 47.222656 C 19.280535 46.829308 19.171875 46.440474 19.171875 46.054688 C 19.171875 45.389022 19.416512 44.847683 19.908203 44.431641 C 20.407454 44.008034 21.055354 43.796875 21.849609 43.796875 z M 30.847656 46.472656 L 33.541016 49.226562 C 33.345253 49.491787 33.165887 49.758409 32.994141 50.025391 C 32.247342 49.963592 31.530454 49.836194 30.853516 49.617188 C 30.089522 49.367562 29.3705 49.020518 28.697266 48.574219 L 30.847656 46.472656 z M 39.908203 47.501953 C 41.118509 47.501953 42.123967 47.867815 42.925781 48.601562 C 43.727621 49.33531 44.128906 50.254974 44.128906 51.359375 C 44.128906 52.025043 43.970051 52.660472 43.652344 53.265625 C 43.327078 53.878339 42.819237 54.490799 42.130859 55.103516 L 36.117188 48.943359 C 36.669376 48.459242 37.260817 48.095582 37.888672 47.853516 C 38.516527 47.619009 39.189589 47.501953 39.908203 47.501953 z M 61.230469 48.404297 L 61.996094 48.404297 L 61.996094 49.169922 L 61.230469 49.169922 L 61.230469 48.404297 z M 65.277344 48.404297 L 65.917969 48.404297 L 65.917969 49.169922 L 65.277344 49.169922 L 65.277344 48.404297 z M 69.199219 48.404297 L 69.964844 48.404297 L 69.964844 49.169922 L 69.199219 49.169922 L 69.199219 48.404297 z M 27.449219 49.798828 C 27.66989 49.961708 27.891392 50.113512 28.113281 50.259766 C 28.062116 51.085286 27.921659 51.871632 27.681641 52.613281 C 27.432015 53.377285 27.083031 54.096299 26.636719 54.769531 L 24.550781 52.634766 L 27.449219 49.798828 z M 19.273438 50.138672 L 25.287109 56.300781 C 24.73492 56.784898 24.145433 57.148559 23.517578 57.390625 C 22.889748 57.625132 22.216686 57.742188 21.498047 57.742188 C 20.287741 57.742188 19.28033 57.374372 18.478516 56.640625 C 17.676676 55.906878 17.277344 54.987213 17.277344 53.882812 C 17.277344 53.217144 17.436199 52.581715 17.753906 51.976562 C 18.079198 51.363848 18.585085 50.751389 19.273438 50.138672 z M 34.767578 50.474609 L 37.0625 52.824219 L 34.080078 55.744141 C 33.753304 55.502952 33.425143 55.286765 33.095703 55.082031 L 33.28125 55.082031 C 33.326554 54.219689 33.472955 53.402427 33.722656 52.630859 C 33.972281 51.866856 34.321266 51.147842 34.767578 50.474609 z M 30.052734 51.316406 C 30.149341 51.358492 30.244967 51.406281 30.341797 51.445312 C 30.881001 51.662662 31.424567 51.828158 31.970703 51.953125 C 31.947269 52.008685 31.91891 52.063507 31.896484 52.119141 C 31.625732 52.790688 31.43207 53.468096 31.304688 54.150391 C 31.265499 54.134078 31.226726 54.113468 31.1875 54.097656 C 30.570581 53.848987 29.948248 53.66876 29.322266 53.541016 C 29.384882 53.401889 29.451543 53.262638 29.507812 53.123047 C 29.748756 52.525435 29.925329 51.92253 30.052734 51.316406 z M 61.230469 52.451172 L 61.996094 52.451172 L 61.996094 53.091797 L 61.230469 53.091797 L 61.230469 52.451172 z M 65.277344 52.451172 L 65.917969 52.451172 L 65.917969 53.091797 L 65.277344 53.091797 L 65.277344 52.451172 z M 69.199219 52.451172 L 69.964844 52.451172 L 69.964844 53.091797 L 69.199219 53.091797 L 69.199219 52.451172 z M 37.314453 53.082031 L 40.53125 56.375 C 41.219527 57.086053 41.677273 57.633747 41.904297 58.019531 C 42.123761 58.412879 42.234375 58.803667 42.234375 59.189453 C 42.234375 59.855119 41.987785 60.394504 41.496094 60.810547 C 40.996843 61.234154 40.350896 61.447266 39.556641 61.447266 C 39.042272 61.447266 38.486266 61.351212 37.888672 61.162109 C 37.776311 61.127975 37.657468 61.075442 37.542969 61.035156 C 37.462696 60.515277 37.337313 60.013235 37.15625 59.533203 C 36.823425 58.670861 36.319719 57.847245 35.646484 57.060547 L 37.314453 55.4375 L 37.314453 53.082031 z M 28.234375 55.482422 C 29.093816 55.528291 29.906593 55.676921 30.675781 55.925781 C 31.4398 56.175406 32.158797 56.522448 32.832031 56.96875 L 30.769531 58.984375 L 27.863281 56.017578 C 27.994502 55.839797 28.113945 55.660993 28.234375 55.482422 z M 61.230469 56.373047 L 61.996094 56.373047 L 61.996094 57.138672 L 61.230469 57.138672 L 61.230469 56.373047 z M 65.277344 56.373047 L 65.917969 56.373047 L 65.917969 57.138672 L 65.277344 57.138672 L 65.277344 56.373047 z M 69.199219 56.373047 L 69.964844 56.373047 L 69.964844 57.138672 L 69.199219 57.138672 L 69.199219 56.373047 z M 26.546875 57.582031 L 28.169922 59.25 L 30.496094 59.25 L 26.931641 62.732422 C 26.220586 63.42079 25.672873 63.878546 25.287109 64.105469 C 24.893736 64.324833 24.502951 64.435547 24.117188 64.435547 C 23.451512 64.435547 22.912144 64.188952 22.496094 63.697266 C 22.072484 63.198015 21.859375 62.552075 21.859375 61.757812 C 21.859375 61.243434 21.955303 60.68743 22.144531 60.089844 C 22.202166 59.900127 22.284205 59.701675 22.359375 59.505859 C 22.955658 59.430203 23.529271 59.297342 24.074219 59.091797 C 24.936556 58.758964 25.760179 58.255263 26.546875 57.582031 z M 34.363281 58.320312 C 34.847338 58.872514 35.210983 59.461999 35.453125 60.089844 C 35.687708 60.717689 35.804688 61.390758 35.804688 62.109375 C 35.804688 63.319678 35.43881 64.325126 34.705078 65.126953 C 33.971321 65.92878 33.051669 66.330078 31.947266 66.330078 C 31.28159 66.330078 30.646168 66.17122 30.041016 65.853516 C 29.428304 65.528247 28.815837 65.022345 28.203125 64.333984 L 34.363281 58.320312 z M 15.826172 71.490234 L 15.826172 83.222656 L 17.212891 83.222656 L 17.212891 71.490234 L 15.826172 71.490234 z M 38.9375 71.490234 L 38.9375 83.222656 L 40.332031 83.222656 L 40.332031 79.099609 L 44.623047 83.222656 L 46.431641 83.222656 L 41.765625 78.728516 L 46.244141 74.777344 L 44.472656 74.777344 L 40.332031 78.419922 L 40.332031 71.490234 L 38.9375 71.490234 z M 57.177734 71.490234 L 57.177734 83.222656 L 58.564453 83.222656 L 58.564453 71.490234 L 57.177734 71.490234 z M 61.460938 71.490234 L 61.460938 73.248047 L 62.847656 73.248047 L 62.847656 71.490234 L 61.460938 71.490234 z M 23.380859 74.574219 C 22.16937 74.574219 21.21993 74.965803 20.53125 75.75 C 19.847584 76.534199 19.505859 77.620388 19.505859 79.007812 C 19.505859 80.390213 19.847584 81.476402 20.53125 82.265625 C 21.21993 83.049824 22.16937 83.441406 23.380859 83.441406 C 24.58731 83.441406 25.535929 83.049824 26.224609 82.265625 C 26.91329 81.476402 27.257812 80.390213 27.257812 79.007812 C 27.257812 77.620388 26.91329 76.534199 26.224609 75.75 C 25.535929 74.965803 24.58731 74.574219 23.380859 74.574219 z M 32.822266 74.574219 C 31.610801 74.574219 30.661362 74.965803 29.972656 75.75 C 29.289015 76.534199 28.947266 77.620388 28.947266 79.007812 C 28.947266 80.390213 29.289015 81.476402 29.972656 82.265625 C 30.661362 83.049824 31.610801 83.441406 32.822266 83.441406 C 34.028741 83.441406 34.975382 83.049824 35.664062 82.265625 C 36.352743 81.476402 36.697266 80.390213 36.697266 79.007812 C 36.697266 77.620388 36.352743 76.534199 35.664062 75.75 C 34.975382 74.965803 34.028741 74.574219 32.822266 74.574219 z M 50.654297 74.574219 C 50.201887 74.574219 49.737322 74.624074 49.259766 74.724609 C 48.78221 74.820113 48.29092 74.966053 47.783203 75.162109 L 47.783203 76.445312 C 48.205452 76.214086 48.644114 76.039456 49.101562 75.923828 C 49.559011 75.8082 50.029123 75.75 50.511719 75.75 C 51.270774 75.75 51.860109 75.927413 52.277344 76.279297 C 52.699618 76.626154 52.910156 77.117442 52.910156 77.755859 L 52.910156 77.892578 L 50.964844 77.892578 C 49.703086 77.892578 48.751694 78.132649 48.113281 78.615234 C 47.479883 79.097817 47.164062 79.81554 47.164062 80.765625 C 47.164063 81.579982 47.41804 82.231138 47.925781 82.71875 C 48.438512 83.201333 49.127558 83.441406 49.992188 83.441406 C 50.675854 83.441406 51.254046 83.321363 51.726562 83.080078 C 52.199104 82.833761 52.593457 82.454152 52.910156 81.941406 L 52.910156 83.222656 L 54.296875 83.222656 L 54.296875 78.404297 C 54.296875 77.117408 53.995816 76.158779 53.392578 75.525391 C 52.78934 74.892 51.87584 74.574219 50.654297 74.574219 z M 78.417969 74.574219 C 77.151197 74.574219 76.143558 74.982515 75.394531 75.796875 C 74.650569 76.606205 74.279297 77.701584 74.279297 79.083984 C 74.279297 80.421141 74.670902 81.481428 75.455078 82.265625 C 76.244319 83.049824 77.312956 83.441406 78.660156 83.441406 C 79.198033 83.441406 79.729144 83.38598 80.251953 83.275391 C 80.774737 83.164792 81.283587 83.004093 81.78125 82.792969 L 81.78125 81.482422 C 81.288626 81.743824 80.791765 81.939616 80.289062 82.070312 C 79.7914 82.201009 79.275025 82.265625 78.742188 82.265625 C 77.82225 82.265625 77.103708 82.017194 76.585938 81.519531 C 76.073106 81.016841 75.786783 80.287143 75.726562 79.332031 L 82.105469 79.332031 L 82.105469 78.654297 C 82.105469 77.397571 81.774887 76.404683 81.111328 75.675781 C 80.452808 74.941852 79.554044 74.574219 78.417969 74.574219 z M 61.460938 74.777344 L 61.460938 83.222656 L 62.847656 83.222656 L 62.847656 74.777344 L 61.460938 74.777344 z M 64.748047 74.777344 L 67.916016 83.222656 L 69.800781 83.222656 L 72.966797 74.777344 L 71.496094 74.777344 L 68.857422 81.865234 L 66.21875 74.777344 L 64.748047 74.777344 z M 23.380859 75.75 C 24.119807 75.75 24.70637 76.044663 25.138672 76.632812 C 25.570999 77.215933 25.787109 78.00746 25.787109 79.007812 C 25.787109 80.013195 25.570999 80.807504 25.138672 81.390625 C 24.70637 81.973746 24.119807 82.265625 23.380859 82.265625 C 22.631833 82.265625 22.041677 81.976531 21.609375 81.398438 C 21.182087 80.815317 20.96875 80.018221 20.96875 79.007812 C 20.96875 77.997406 21.184885 77.203094 21.617188 76.625 C 22.049515 76.041877 22.636872 75.75 23.380859 75.75 z M 32.822266 75.75 C 33.561239 75.75 34.147776 76.044663 34.580078 76.632812 C 35.012406 77.215933 35.228516 78.00746 35.228516 79.007812 C 35.228516 80.013195 35.012406 80.807504 34.580078 81.390625 C 34.147776 81.973746 33.561239 82.265625 32.822266 82.265625 C 32.073264 82.265625 31.483084 81.976531 31.050781 81.398438 C 30.623493 80.815317 30.410156 80.018221 30.410156 79.007812 C 30.410156 77.997406 30.626291 77.203094 31.058594 76.625 C 31.490921 76.041877 32.078303 75.75 32.822266 75.75 z M 78.433594 75.75 C 79.11726 75.75 79.66593 75.977265 80.078125 76.429688 C 80.495334 76.88211 80.708671 77.487031 80.71875 78.246094 L 75.771484 78.253906 C 75.841859 77.459656 76.109803 76.843592 76.572266 76.40625 C 77.039768 75.968908 77.659446 75.75 78.433594 75.75 z M 51.529297 78.978516 L 52.910156 78.978516 L 52.910156 79.287109 C 52.910156 80.191953 52.676487 80.918864 52.208984 81.466797 C 51.746496 82.009703 51.130437 82.28125 50.361328 82.28125 C 49.803344 82.28125 49.359956 82.138096 49.033203 81.851562 C 48.711465 81.56 48.550781 81.166464 48.550781 80.673828 C 48.550781 80.05552 48.766891 79.619654 49.199219 79.363281 C 49.631521 79.106908 50.408289 78.978516 51.529297 78.978516 z M 35.574219 86.144531 C 35.056222 86.144531 34.678067 86.26228 34.439453 86.498047 C 34.200839 86.731062 34.082031 87.104547 34.082031 87.617188 L 34.082031 87.9375 L 33.357422 87.9375 L 33.357422 88.525391 L 34.082031 88.525391 L 34.082031 92.542969 L 34.841797 92.542969 L 34.841797 88.525391 L 36.087891 88.525391 L 36.087891 87.9375 L 34.841797 87.9375 L 34.841797 87.53125 C 34.841797 87.246148 34.893984 87.04911 34.998047 86.939453 C 35.104957 86.829796 35.295011 86.773437 35.566406 86.773438 L 36.289062 86.773438 L 36.289062 86.144531 L 35.574219 86.144531 z M 41.369141 86.630859 L 41.369141 87.9375 L 40.8125 87.9375 L 40.8125 88.525391 L 41.369141 88.525391 L 41.369141 91.025391 C 41.369141 91.601076 41.479188 91.999437 41.701172 92.21875 C 41.923207 92.435317 42.326219 92.542969 42.910156 92.542969 L 43.6875 92.542969 L 43.6875 91.910156 L 42.910156 91.910156 C 42.595019 91.910156 42.385565 91.85691 42.28125 91.75 C 42.179959 91.643087 42.128906 91.40096 42.128906 91.025391 L 42.128906 88.525391 L 43.6875 88.525391 L 43.6875 87.9375 L 42.128906 87.9375 L 42.128906 86.630859 L 41.369141 86.630859 z M 16.679688 87.826172 C 16.11495 87.826172 15.678117 87.945874 15.371094 88.181641 C 15.06407 88.417397 14.910156 88.750455 14.910156 89.183594 C 14.910156 89.53997 15.014278 89.821737 15.222656 90.027344 C 15.431009 90.230199 15.769494 90.37982 16.238281 90.478516 L 16.501953 90.541016 C 16.970715 90.642433 17.273085 90.747765 17.410156 90.857422 C 17.549999 90.967074 17.621094 91.124472 17.621094 91.330078 C 17.621094 91.55213 17.524031 91.724292 17.332031 91.847656 C 17.140132 91.968274 16.86615 92.029297 16.509766 92.029297 C 16.243863 92.029297 15.976473 91.993157 15.705078 91.921875 C 15.433683 91.847847 15.156588 91.739035 14.876953 91.59375 L 14.876953 92.375 C 15.173016 92.470924 15.454776 92.541276 15.720703 92.587891 C 15.989402 92.637226 16.247463 92.662109 16.494141 92.662109 C 17.086292 92.662109 17.551488 92.538537 17.888672 92.289062 C 18.228603 92.039596 18.398438 91.701091 18.398438 91.273438 C 18.398438 90.897876 18.284168 90.604837 18.056641 90.396484 C 17.83186 90.185385 17.451385 90.023328 16.914062 89.908203 L 16.654297 89.849609 C 16.248552 89.759153 15.978049 89.665102 15.84375 89.566406 C 15.709451 89.464971 15.642578 89.325836 15.642578 89.150391 C 15.642578 88.920127 15.735418 88.747962 15.921875 88.632812 C 16.111028 88.517663 16.393947 88.460937 16.769531 88.460938 C 17.016208 88.460937 17.254076 88.48814 17.484375 88.542969 C 17.714573 88.597797 17.938422 88.679406 18.152344 88.789062 L 18.152344 88.074219 L 18.150391 88.074219 C 17.941987 87.991976 17.715427 87.929793 17.46875 87.888672 C 17.222022 87.847551 16.959297 87.826172 16.679688 87.826172 z M 25.994141 87.826172 C 25.333454 87.826172 24.815012 88.041094 24.439453 88.46875 C 24.066615 88.896404 23.878906 89.48752 23.878906 90.244141 C 23.878906 90.99802 24.066615 91.591087 24.439453 92.021484 C 24.815012 92.44914 25.333454 92.662109 25.994141 92.662109 C 26.652056 92.662109 27.167384 92.44914 27.542969 92.021484 C 27.918528 91.591087 28.107422 90.99802 28.107422 90.244141 C 28.107422 89.48752 27.918528 88.896404 27.542969 88.46875 C 27.167384 88.041094 26.652056 87.826172 25.994141 87.826172 z M 62.40625 87.826172 C 62.159522 87.826172 61.904966 87.855328 61.644531 87.910156 C 61.384122 87.962238 61.116732 88.041527 60.839844 88.148438 L 60.839844 88.847656 C 61.070143 88.721546 61.309145 88.625543 61.558594 88.5625 C 61.808043 88.499457 62.064944 88.46875 62.328125 88.46875 C 62.742084 88.46875 63.061535 88.56396 63.289062 88.755859 C 63.519362 88.945015 63.634766 89.214345 63.634766 89.5625 L 63.634766 89.636719 L 62.574219 89.636719 C 61.886143 89.636719 61.367701 89.768076 61.019531 90.03125 C 60.674108 90.294424 60.501953 90.685005 60.501953 91.203125 C 60.501953 91.64723 60.641081 92.001666 60.917969 92.267578 C 61.197603 92.530752 61.573413 92.662109 62.044922 92.662109 C 62.41776 92.662109 62.732546 92.596422 62.990234 92.464844 C 63.248023 92.330517 63.462167 92.12337 63.634766 91.84375 L 63.634766 92.542969 L 64.392578 92.542969 L 64.392578 89.916016 C 64.392578 89.214223 64.227408 88.691117 63.898438 88.345703 C 63.569467 88.00029 63.072404 87.826172 62.40625 87.826172 z M 72.837891 87.826172 C 72.473292 87.826172 72.163145 87.896132 71.908203 88.033203 C 71.653236 88.16753 71.448055 88.374675 71.289062 88.654297 L 71.289062 87.9375 L 70.527344 87.9375 L 70.527344 92.542969 L 71.289062 92.542969 L 71.289062 90.117188 C 71.289062 89.596326 71.401379 89.196803 71.628906 88.919922 C 71.85918 88.640302 72.189521 88.501953 72.617188 88.501953 C 72.737628 88.501953 72.846541 88.51437 72.945312 88.539062 C 73.046856 88.561009 73.139696 88.595196 73.224609 88.644531 L 73.220703 87.867188 C 73.143853 87.853581 73.074711 87.845387 73.011719 87.839844 C 72.948727 87.831529 72.890048 87.826172 72.837891 87.826172 z M 80.384766 87.826172 C 79.693944 87.826172 79.142841 88.048083 78.734375 88.492188 C 78.328655 88.933548 78.126953 89.531277 78.126953 90.285156 C 78.126953 91.014363 78.339937 91.593828 78.767578 92.021484 C 79.197991 92.44914 79.780935 92.662109 80.515625 92.662109 C 80.808942 92.662109 81.09771 92.632587 81.382812 92.572266 C 81.667915 92.51197 81.947355 92.423743 82.21875 92.308594 L 82.21875 91.59375 C 81.950101 91.736289 81.678439 91.842781 81.404297 91.914062 C 81.132902 91.985344 80.851117 92.021484 80.560547 92.021484 C 80.058852 92.021484 79.667122 91.884679 79.384766 91.613281 C 79.105257 91.339145 78.949023 90.942737 78.916016 90.421875 L 82.394531 90.421875 L 82.394531 90.050781 C 82.394531 89.365437 82.21344 88.825235 81.851562 88.427734 C 81.492457 88.027492 81.004331 87.826172 80.384766 87.826172 z M 48.857422 87.9375 L 50.060547 92.542969 L 50.953125 92.542969 L 51.949219 88.769531 L 52.939453 92.542969 L 53.832031 92.542969 L 55.037109 87.9375 L 54.28125 87.9375 L 53.337891 91.53125 L 52.392578 87.9375 L 51.5 87.9375 L 50.558594 91.53125 L 49.613281 87.9375 L 48.857422 87.9375 z M 25.994141 88.46875 C 26.397038 88.46875 26.715329 88.628478 26.951172 88.949219 C 27.187014 89.267218 27.304688 89.698606 27.304688 90.244141 C 27.304687 90.792417 27.187014 91.22692 26.951172 91.544922 C 26.715405 91.862921 26.397114 92.021484 25.994141 92.021484 C 25.58575 92.021484 25.263186 91.864086 25.027344 91.548828 C 24.794273 91.230826 24.677734 90.795158 24.677734 90.244141 C 24.677734 89.693123 24.795407 89.26057 25.03125 88.945312 C 25.266992 88.627313 25.588396 88.46875 25.994141 88.46875 z M 80.392578 88.46875 C 80.765441 88.46875 81.064307 88.591163 81.289062 88.837891 C 81.517094 89.084616 81.633633 89.416129 81.638672 89.830078 L 78.941406 89.833984 C 78.979781 89.400833 79.124733 89.06466 79.376953 88.826172 C 79.631895 88.587684 79.970405 88.46875 80.392578 88.46875 z M 62.882812 90.228516 L 63.634766 90.228516 L 63.634766 90.396484 C 63.634766 90.889932 63.506895 91.287126 63.251953 91.585938 C 62.999733 91.882006 62.665521 92.029297 62.246094 92.029297 C 61.941766 92.029297 61.699626 91.951193 61.521484 91.794922 C 61.346114 91.635922 61.257812 91.422953 61.257812 91.154297 C 61.257812 90.817115 61.375486 90.577317 61.611328 90.4375 C 61.847095 90.297683 62.271487 90.228516 62.882812 90.228516 z "
       transform="matrix(0.26458333,0,0,0.26458333,-263.61495,23.134222)"
       id="path3409" />
  </g>
</svg>
