<?xml version="1.0" encoding="UTF-8" standalone="no"?>
<svg
   xmlns:dc="http://purl.org/dc/elements/1.1/"
   xmlns:cc="http://creativecommons.org/ns#"
   xmlns:rdf="http://www.w3.org/1999/02/22-rdf-syntax-ns#"
   xmlns:svg="http://www.w3.org/2000/svg"
   xmlns="http://www.w3.org/2000/svg"
   xmlns:sodipodi="http://sodipodi.sourceforge.net/DTD/sodipodi-0.dtd"
   xmlns:inkscape="http://www.inkscape.org/namespaces/inkscape"
   id="eiswhfweybi1"
   viewBox="0 0 25.400001 25.400000"
   shape-rendering="geometricPrecision"
   text-rendering="geometricPrecision"
   version="1.1"
   sodipodi:docname="ready_ani_white.svg"
   inkscape:version="0.92.2 5c3e80d, 2017-08-06">
  <metadata
     id="metadata9067">
    <rdf:RDF>
      <cc:Work
         rdf:about="">
        <dc:format>image/svg+xml</dc:format>
        <dc:type
           rdf:resource="http://purl.org/dc/dcmitype/StillImage" />
        <dc:title></dc:title>
      </cc:Work>
    </rdf:RDF>
  </metadata>
  <defs
     id="defs9065" />
  <sodipodi:namedview
     pagecolor="#ffffff"
     bordercolor="#666666"
     borderopacity="1"
     objecttolerance="10"
     gridtolerance="10"
     guidetolerance="10"
     inkscape:pageopacity="0"
     inkscape:pageshadow="2"
     inkscape:window-width="1440"
     inkscape:window-height="855"
     id="namedview9063"
     showgrid="false"
     inkscape:zoom="9.2913387"
     inkscape:cx="12.700001"
     inkscape:cy="12.7"
     inkscape:window-x="0"
     inkscape:window-y="1"
     inkscape:window-maximized="1"
     inkscape:current-layer="eiswhfweybi1" />
  <style
     id="style9001"><![CDATA[#eiswhfweybi2_tr {animation: eiswhfweybi2_tr__tr 3200ms linear 1 normal forwards}@keyframes eiswhfweybi2_tr__tr { 0% {transform: translate(8.201083px,4.772224px) rotate(0deg)} 75% {transform: translate(8.201083px,4.772224px) rotate(0deg)} 84.375000% {transform: translate(8.201083px,4.772224px) rotate(90deg)} 100% {transform: translate(8.201083px,4.772224px) rotate(90deg)} }#eiswhfweybi2 {animation: eiswhfweybi2_c_o 3200ms linear 1 normal forwards}@keyframes eiswhfweybi2_c_o { 0% {opacity: 0} 12.500000% {opacity: 0} 18.750000% {opacity: 1} 100% {opacity: 1} }#eiswhfweybi7 {animation: eiswhfweybi7_c_o 3200ms linear 1 normal forwards}@keyframes eiswhfweybi7_c_o { 0% {opacity: 0} 9.375000% {opacity: 1} 15.625000% {opacity: 1} 100% {opacity: 1} }#eiswhfweybi9 {animation: eiswhfweybi9_c_o 3200ms linear 1 normal forwards}@keyframes eiswhfweybi9_c_o { 0% {opacity: 0} 9.375000% {opacity: 0} 18.750000% {opacity: 1} 100% {opacity: 1} }#eiswhfweybi11_tr {animation: eiswhfweybi11_tr__tr 3200ms linear 1 normal forwards}@keyframes eiswhfweybi11_tr__tr { 0% {transform: translate(8.110400px,13.975650px) rotate(0deg)} 87.500000% {transform: translate(8.110400px,13.975650px) rotate(0deg)} 96.875000% {transform: translate(8.110400px,13.975650px) rotate(90deg)} 100% {transform: translate(8.110400px,13.975650px) rotate(90deg)} }#eiswhfweybi11 {animation: eiswhfweybi11_c_o 3200ms linear 1 normal forwards}@keyframes eiswhfweybi11_c_o { 0% {opacity: 0} 46.875000% {opacity: 0} 56.250000% {opacity: 1} 100% {opacity: 1} }#eiswhfweybi16 {animation: eiswhfweybi16_c_o 3200ms linear 1 normal forwards}@keyframes eiswhfweybi16_c_o { 0% {opacity: 0} 37.500000% {opacity: 0} 46.875000% {opacity: 1} 100% {opacity: 1} }#eiswhfweybi18 {animation: eiswhfweybi18_c_o 3200ms linear 1 normal forwards}@keyframes eiswhfweybi18_c_o { 0% {opacity: 0} 46.875000% {opacity: 0} 56.250000% {opacity: 1} 100% {opacity: 1} }#eiswhfweybi20_tr {animation: eiswhfweybi20_tr__tr 3200ms linear 1 normal forwards}@keyframes eiswhfweybi20_tr__tr { 0% {transform: translate(17.355960px,13.962463px) rotate(0deg)} 90.625000% {transform: translate(17.355960px,13.962463px) rotate(0deg)} 100% {transform: translate(17.355960px,13.962463px) rotate(90deg)} }#eiswhfweybi20 {animation: eiswhfweybi20_c_o 3200ms linear 1 normal forwards}@keyframes eiswhfweybi20_c_o { 0% {opacity: 0} 65.625000% {opacity: 0} 75% {opacity: 1} 100% {opacity: 1} }#eiswhfweybi25 {animation: eiswhfweybi25_c_o 3200ms linear 1 normal forwards}@keyframes eiswhfweybi25_c_o { 0% {opacity: 0} 56.250000% {opacity: 0} 65.625000% {opacity: 1} 100% {opacity: 1} }#eiswhfweybi27 {animation: eiswhfweybi27_c_o 3200ms linear 1 normal forwards}@keyframes eiswhfweybi27_c_o { 0% {opacity: 0} 65.625000% {opacity: 0} 75% {opacity: 1} 100% {opacity: 1} }#eiswhfweybi29_tr {animation: eiswhfweybi29_tr__tr 3200ms linear 1 normal forwards}@keyframes eiswhfweybi29_tr__tr { 0% {transform: translate(17.131291px,4.772224px) rotate(0deg)} 81.250000% {transform: translate(17.131291px,4.772224px) rotate(0deg)} 90.625000% {transform: translate(17.131291px,4.772224px) rotate(90deg)} 100% {transform: translate(17.131291px,4.772224px) rotate(90deg)} }#eiswhfweybi29 {animation: eiswhfweybi29_c_o 3200ms linear 1 normal forwards}@keyframes eiswhfweybi29_c_o { 0% {opacity: 0} 28.125000% {opacity: 0} 37.500000% {opacity: 1} 100% {opacity: 1} }#eiswhfweybi34 {animation: eiswhfweybi34_c_o 3200ms linear 1 normal forwards}@keyframes eiswhfweybi34_c_o { 0% {opacity: 0} 18.750000% {opacity: 0} 28.125000% {opacity: 1} 100% {opacity: 1} }#eiswhfweybi36 {animation: eiswhfweybi36_c_o 3200ms linear 1 normal forwards}@keyframes eiswhfweybi36_c_o { 0% {opacity: 0} 28.125000% {opacity: 0} 37.500000% {opacity: 1} 100% {opacity: 1} }]]></style>
  <g
     id="eiswhfweybi2_tr"
     transform="translate(8.201083,4.772224) rotate(0)"
     style="fill:#ffffff">
    <g
       id="eiswhfweybi2"
       transform="translate(-8.201083,-4.772224)"
       opacity="0"
       style="fill:#ffffff">
      <g
         id="eiswhfweybi3"
         style="fill:#ffffff">
        <path
           id="eiswhfweybi4"
           d="M5.736029,7.489165L6.785061,7.489165L6.785061,8.801746L5.736029,8.801746ZM6.754055,6.729521L5.767035,6.729521L5.767035,5.933704Q5.767035,5.411772,5.911729,5.075876Q6.056423,4.739979,6.521511,4.295562L6.986599,3.835641Q7.281155,3.561756,7.410346,3.318877Q7.544704,3.075998,7.544704,2.822783Q7.544704,2.362863,7.203640,2.078643Q6.867743,1.794422,6.309638,1.794422Q5.901394,1.794422,5.436306,1.975290Q4.976386,2.156157,4.475124,2.502390L4.475124,1.530873Q4.960883,1.236317,5.456976,1.091623Q5.958238,0.946929,6.490505,0.946929Q7.441351,0.946929,8.014960,1.448190Q8.593736,1.949452,8.593736,2.771107Q8.593736,3.163848,8.407701,3.520415Q8.221666,3.871815,7.756578,4.316232L7.301825,4.760650Q7.058946,5.003529,6.955593,5.143055Q6.857408,5.277414,6.816067,5.406605Q6.785061,5.515125,6.769558,5.670155Q6.754055,5.825184,6.754055,6.093901Z"
           fill="rgb(0,0,0)"
           stroke="none"
           stroke-width="0.264583"
           style="fill:#ffffff" />
      </g>
      <g
         id="eiswhfweybi5"
         transform="matrix(-1 0 -0 -1 0 0)"
         style="fill:#ffffff">
        <path
           id="eiswhfweybi6"
           d="M-10.507831,-2.259510L-9.458799,-2.259510L-9.458799,-0.946929L-10.507831,-0.946929ZM-9.489805,-3.019154L-10.476825,-3.019154L-10.476825,-3.814971Q-10.476825,-4.336902,-10.332131,-4.672799Q-10.187437,-5.008696,-9.722349,-5.453113L-9.257261,-5.913034Q-8.962706,-6.186919,-8.833515,-6.429798Q-8.699156,-6.672677,-8.699156,-6.925892Q-8.699156,-7.385812,-9.040220,-7.670032Q-9.376117,-7.954253,-9.934223,-7.954253Q-10.342466,-7.954253,-10.807554,-7.773385Q-11.267475,-7.592518,-11.768736,-7.246286L-11.768736,-8.217803Q-11.282977,-8.512358,-10.786884,-8.657052Q-10.285622,-8.801746,-9.753355,-8.801746Q-8.802509,-8.801746,-8.228900,-8.300485Q-7.650124,-7.799223,-7.650124,-6.977568Q-7.650124,-6.584827,-7.836160,-6.228260Q-8.022195,-5.876860,-8.487283,-5.432443L-8.942035,-4.988026Q-9.184914,-4.745146,-9.288267,-4.605620Q-9.386452,-4.471261,-9.427794,-4.342070Q-9.458800,-4.233550,-9.474303,-4.078520Q-9.489806,-3.923491,-9.489806,-3.654774Z"
           fill="rgb(0,0,0)"
           stroke="none"
           stroke-width="0.264583"
           style="fill:#ffffff" />
      </g>
    </g>
  </g>
  <g
     id="eiswhfweybi7"
     opacity="0"
     style="fill:#ffffff">
    <path
       id="eiswhfweybi8"
       d="M5.736029,7.489165L6.785061,7.489165L6.785061,8.801746L5.736029,8.801746ZM6.754055,6.729521L5.767035,6.729521L5.767035,5.933704Q5.767035,5.411772,5.911729,5.075876Q6.056423,4.739979,6.521511,4.295562L6.986599,3.835641Q7.281155,3.561756,7.410346,3.318877Q7.544704,3.075998,7.544704,2.822783Q7.544704,2.362863,7.203640,2.078643Q6.867743,1.794422,6.309638,1.794422Q5.901394,1.794422,5.436306,1.975290Q4.976386,2.156157,4.475124,2.502390L4.475124,1.530873Q4.960883,1.236317,5.456976,1.091623Q5.958238,0.946929,6.490505,0.946929Q7.441351,0.946929,8.014960,1.448190Q8.593736,1.949452,8.593736,2.771107Q8.593736,3.163848,8.407701,3.520415Q8.221666,3.871815,7.756578,4.316232L7.301825,4.760650Q7.058946,5.003529,6.955593,5.143055Q6.857408,5.277414,6.816067,5.406605Q6.785061,5.515125,6.769558,5.670155Q6.754055,5.825184,6.754055,6.093901Z"
       fill="rgb(0,0,0)"
       stroke="none"
       stroke-width="0.264583"
       style="fill:#ffffff" />
  </g>
  <g
     id="eiswhfweybi9"
     transform="matrix(-1 0 -0 -1 0 0)"
     opacity="0"
     style="fill:#ffffff">
    <path
       id="eiswhfweybi10"
       d="M-10.507831,-2.259510L-9.458799,-2.259510L-9.458799,-0.946929L-10.507831,-0.946929ZM-9.489805,-3.019154L-10.476825,-3.019154L-10.476825,-3.814971Q-10.476825,-4.336902,-10.332131,-4.672799Q-10.187437,-5.008696,-9.722349,-5.453113L-9.257261,-5.913034Q-8.962706,-6.186919,-8.833515,-6.429798Q-8.699156,-6.672677,-8.699156,-6.925892Q-8.699156,-7.385812,-9.040220,-7.670032Q-9.376117,-7.954253,-9.934223,-7.954253Q-10.342466,-7.954253,-10.807554,-7.773385Q-11.267475,-7.592518,-11.768736,-7.246286L-11.768736,-8.217803Q-11.282977,-8.512358,-10.786884,-8.657052Q-10.285622,-8.801746,-9.753355,-8.801746Q-8.802509,-8.801746,-8.228900,-8.300485Q-7.650124,-7.799223,-7.650124,-6.977568Q-7.650124,-6.584827,-7.836160,-6.228260Q-8.022195,-5.876860,-8.487283,-5.432443L-8.942035,-4.988026Q-9.184914,-4.745146,-9.288267,-4.605620Q-9.386452,-4.471261,-9.427794,-4.342070Q-9.458800,-4.233550,-9.474303,-4.078520Q-9.489806,-3.923491,-9.489806,-3.654774Z"
       fill="rgb(0,0,0)"
       stroke="none"
       stroke-width="0.264583"
       style="fill:#ffffff" />
  </g>
  <g
     id="eiswhfweybi11_tr"
     transform="translate(8.110400,13.975650) rotate(0)"
     style="fill:#ffffff">
    <g
       id="eiswhfweybi11"
       transform="translate(-8.201083,-13.884967)"
       opacity="0"
       style="fill:#ffffff">
      <g
         id="eiswhfweybi12"
         style="fill:#ffffff">
        <path
           id="eiswhfweybi13"
           d="M5.090886,13.251225Q4.817693,13.494397,4.688601,13.737569Q4.562512,13.977738,4.562512,14.241925Q4.562512,14.680235,4.880737,14.971440Q5.198962,15.262646,5.679301,15.262646Q5.964503,15.262646,6.213679,15.169576Q6.462855,15.073506,6.682010,14.881373ZM5.514185,12.914988L7.039262,14.476091Q7.216387,14.208902,7.315457,13.905688Q7.414527,13.599471,7.432540,13.257230L7.990934,13.257230Q7.954909,13.653509,7.798798,14.040783Q7.642688,14.428057,7.363491,14.806324L8.201083,15.661928L7.444548,15.661928L7.015245,15.220616Q6.703024,15.487805,6.360783,15.619898Q6.018541,15.748990,5.625263,15.748990Q4.901752,15.748990,4.442428,15.337699Q3.983103,14.923406,3.983103,14.277951Q3.983103,13.893679,4.184245,13.557442Q4.385387,13.218202,4.787671,12.920992Q4.643570,12.731858,4.568517,12.545727Q4.493464,12.356593,4.493464,12.176466Q4.493464,11.690123,4.826699,11.395915Q5.159934,11.098705,5.712325,11.098705Q5.961501,11.098705,6.207675,11.152745Q6.456851,11.206785,6.712031,11.314859L6.712031,11.861245Q6.450846,11.720144,6.213679,11.648093Q5.976511,11.573040,5.772367,11.573040Q5.457144,11.573040,5.259004,11.741159Q5.063866,11.906275,5.063866,12.170462Q5.063866,12.323570,5.150929,12.479680Q5.240992,12.632788,5.514185,12.914988Z"
           fill="rgb(0,0,0)"
           stroke="none"
           stroke-width="0.153709"
           style="fill:#ffffff" />
      </g>
      <g
         id="eiswhfweybi14"
         transform="matrix(-1 0 -0 -1 0 0)"
         style="fill:#ffffff">
        <path
           id="eiswhfweybi15"
           d="M-11.137150,-14.584862Q-11.410343,-14.341690,-11.539434,-14.098518Q-11.665523,-13.858349,-11.665523,-13.594162Q-11.665523,-13.155853,-11.347298,-12.864647Q-11.029074,-12.573441,-10.548734,-12.573441Q-10.263533,-12.573441,-10.014357,-12.666511Q-9.765181,-12.762581,-9.546026,-12.954714ZM-10.713851,-14.921099L-9.188774,-13.359997Q-9.011648,-13.627185,-8.912578,-13.930400Q-8.813508,-14.236616,-8.795496,-14.578858L-8.237101,-14.578858Q-8.273126,-14.182578,-8.429237,-13.795304Q-8.585347,-13.408031,-8.864545,-13.029763L-8.026953,-12.174159L-8.783487,-12.174159L-9.212790,-12.615471Q-9.525011,-12.348282,-9.867253,-12.216189Q-10.209495,-12.087098,-10.602772,-12.087098Q-11.326283,-12.087098,-11.785608,-12.498388Q-12.244932,-12.912681,-12.244932,-13.558137Q-12.244932,-13.942408,-12.043790,-14.278646Q-11.842648,-14.617885,-11.440364,-14.915095Q-11.584466,-15.104229,-11.659519,-15.290360Q-11.734569,-15.479494,-11.734569,-15.659621Q-11.734569,-16.145965,-11.401333,-16.440172Q-11.068098,-16.737382,-10.515708,-16.737382Q-10.266532,-16.737382,-10.020358,-16.683342Q-9.771182,-16.629302,-9.516002,-16.521228L-9.516002,-15.974842Q-9.777186,-16.115941,-10.014354,-16.187992Q-10.251521,-16.263042,-10.455665,-16.263042Q-10.770888,-16.263042,-10.969028,-16.094924Q-11.164166,-15.929807,-11.164166,-15.665620Q-11.164166,-15.512512,-11.077106,-15.356402Q-10.987046,-15.203294,-10.713850,-14.921094Z"
           fill="rgb(0,0,0)"
           stroke="none"
           stroke-width="0.153709"
           style="fill:#ffffff" />
      </g>
    </g>
  </g>
  <g
     id="eiswhfweybi16"
     opacity="0"
     style="fill:#ffffff">
    <path
       id="eiswhfweybi17"
       d="M5.090886,13.251225Q4.817693,13.494397,4.688601,13.737569Q4.562512,13.977738,4.562512,14.241925Q4.562512,14.680235,4.880737,14.971440Q5.198962,15.262646,5.679301,15.262646Q5.964503,15.262646,6.213679,15.169576Q6.462855,15.073506,6.682010,14.881373ZM5.514185,12.914988L7.039262,14.476091Q7.216387,14.208902,7.315457,13.905688Q7.414527,13.599471,7.432540,13.257230L7.990934,13.257230Q7.954909,13.653509,7.798798,14.040783Q7.642688,14.428057,7.363491,14.806324L8.201083,15.661928L7.444548,15.661928L7.015245,15.220616Q6.703024,15.487805,6.360783,15.619898Q6.018541,15.748990,5.625263,15.748990Q4.901752,15.748990,4.442428,15.337699Q3.983103,14.923406,3.983103,14.277951Q3.983103,13.893679,4.184245,13.557442Q4.385387,13.218202,4.787671,12.920992Q4.643570,12.731858,4.568517,12.545727Q4.493464,12.356593,4.493464,12.176466Q4.493464,11.690123,4.826699,11.395915Q5.159934,11.098705,5.712325,11.098705Q5.961501,11.098705,6.207675,11.152745Q6.456851,11.206785,6.712031,11.314859L6.712031,11.861245Q6.450846,11.720144,6.213679,11.648093Q5.976511,11.573040,5.772367,11.573040Q5.457144,11.573040,5.259004,11.741159Q5.063866,11.906275,5.063866,12.170462Q5.063866,12.323570,5.150929,12.479680Q5.240992,12.632788,5.514185,12.914988Z"
       fill="rgb(0,0,0)"
       stroke="none"
       stroke-width="0.153709"
       style="fill:#ffffff" />
  </g>
  <g
     id="eiswhfweybi18"
     transform="matrix(-1 0 -0 -1 0 0)"
     opacity="0"
     style="fill:#ffffff">
    <path
       id="eiswhfweybi19"
       d="M-11.137150,-14.584862Q-11.410343,-14.341690,-11.539434,-14.098518Q-11.665523,-13.858349,-11.665523,-13.594162Q-11.665523,-13.155853,-11.347298,-12.864647Q-11.029074,-12.573441,-10.548734,-12.573441Q-10.263533,-12.573441,-10.014357,-12.666511Q-9.765181,-12.762581,-9.546026,-12.954714ZM-10.713851,-14.921099L-9.188774,-13.359997Q-9.011648,-13.627185,-8.912578,-13.930400Q-8.813508,-14.236616,-8.795496,-14.578858L-8.237101,-14.578858Q-8.273126,-14.182578,-8.429237,-13.795304Q-8.585347,-13.408031,-8.864545,-13.029763L-8.026953,-12.174159L-8.783487,-12.174159L-9.212790,-12.615471Q-9.525011,-12.348282,-9.867253,-12.216189Q-10.209495,-12.087098,-10.602772,-12.087098Q-11.326283,-12.087098,-11.785608,-12.498388Q-12.244932,-12.912681,-12.244932,-13.558137Q-12.244932,-13.942408,-12.043790,-14.278646Q-11.842648,-14.617885,-11.440364,-14.915095Q-11.584466,-15.104229,-11.659519,-15.290360Q-11.734569,-15.479494,-11.734569,-15.659621Q-11.734569,-16.145965,-11.401333,-16.440172Q-11.068098,-16.737382,-10.515708,-16.737382Q-10.266532,-16.737382,-10.020358,-16.683342Q-9.771182,-16.629302,-9.516002,-16.521228L-9.516002,-15.974842Q-9.777186,-16.115941,-10.014354,-16.187992Q-10.251521,-16.263042,-10.455665,-16.263042Q-10.770888,-16.263042,-10.969028,-16.094924Q-11.164166,-15.929807,-11.164166,-15.665620Q-11.164166,-15.512512,-11.077106,-15.356402Q-10.987046,-15.203294,-10.713850,-14.921094Z"
       fill="rgb(0,0,0)"
       stroke="none"
       stroke-width="0.153709"
       style="fill:#ffffff" />
  </g>
  <g
     id="eiswhfweybi20_tr"
     transform="translate(17.355960,13.962463) rotate(0)"
     style="fill:#ffffff">
    <g
       id="eiswhfweybi20"
       transform="translate(-17.355960,-13.962463)"
       opacity="0"
       style="fill:#ffffff">
      <g
         id="eiswhfweybi21"
         transform="matrix(-1 0 -0 -1 0 0)"
         style="fill:#ffffff">
        <path
           id="eiswhfweybi22"
           d="M-19.920802,-14.915453L-13.295884,-14.915453L-13.295884,-14.047289L-19.920802,-14.047289ZM-19.920802,-12.807054L-13.295884,-12.807054L-13.295884,-11.928555L-19.920802,-11.928555Z"
           fill="rgb(0,0,0)"
           stroke="none"
           stroke-width="0.264583"
           style="fill:#ffffff" />
      </g>
      <g
         id="eiswhfweybi23"
         style="fill:#ffffff">
        <path
           id="eiswhfweybi24"
           d="M14.791117,13.009474L21.416036,13.009474L21.416036,13.877638L14.791117,13.877638ZM14.791117,15.117872L21.416036,15.117872L21.416036,15.996372L14.791117,15.996372Z"
           fill="rgb(0,0,0)"
           stroke="none"
           stroke-width="0.264583"
           style="fill:#ffffff" />
      </g>
    </g>
  </g>
  <g
     id="eiswhfweybi25"
     transform="matrix(-1 0 -0 -1 0 0)"
     opacity="0"
     style="fill:#ffffff">
    <path
       id="eiswhfweybi26"
       d="M-19.920802,-14.915453L-13.295884,-14.915453L-13.295884,-14.047289L-19.920802,-14.047289ZM-19.920802,-12.807054L-13.295884,-12.807054L-13.295884,-11.928555L-19.920802,-11.928555Z"
       fill="rgb(0,0,0)"
       stroke="none"
       stroke-width="0.264583"
       style="fill:#ffffff" />
  </g>
  <g
     id="eiswhfweybi27"
     opacity="0"
     style="fill:#ffffff">
    <path
       id="eiswhfweybi28"
       d="M14.791117,13.009474L21.416036,13.009474L21.416036,13.877638L14.791117,13.877638ZM14.791117,15.117872L21.416036,15.117872L21.416036,15.996372L14.791117,15.996372Z"
       fill="rgb(0,0,0)"
       stroke="none"
       stroke-width="0.264583"
       style="fill:#ffffff" />
  </g>
  <g
     id="eiswhfweybi29_tr"
     transform="translate(17.131291,4.772224) rotate(0)"
     style="fill:#ffffff">
    <g
       id="eiswhfweybi29"
       transform="translate(-17.131291,-4.772224)"
       opacity="0"
       style="fill:#ffffff">
      <g
         id="eiswhfweybi30"
         style="fill:#ffffff">
        <path
           id="eiswhfweybi31"
           d="M15.637622,7.317288L16.686653,7.317288L16.686653,8.629869L15.637622,8.629869ZM15.637622,0.914578L16.686653,0.914578L16.686653,4.299385L16.583301,6.144233L15.746142,6.144233L15.637622,4.299385Z"
           fill="rgb(0,0,0)"
           stroke="none"
           stroke-width="0.264583"
           style="fill:#ffffff" />
      </g>
      <g
         id="eiswhfweybi32"
         transform="matrix(-1 0 -0 -1 0 0)"
         style="fill:#ffffff">
        <path
           id="eiswhfweybi33"
           d="M-19.134676,-2.227160L-18.085644,-2.227160L-18.085644,-0.914578L-19.134676,-0.914578ZM-19.134676,-8.629869L-18.085644,-8.629869L-18.085644,-5.245063L-18.188997,-3.400215L-19.026156,-3.400215L-19.134676,-5.245063Z"
           fill="rgb(0,0,0)"
           stroke="none"
           stroke-width="0.264583"
           style="fill:#ffffff" />
      </g>
    </g>
  </g>
  <g
     id="eiswhfweybi34"
     opacity="0"
     style="fill:#ffffff">
    <path
       id="eiswhfweybi35"
       d="M15.637622,7.317288L16.686653,7.317288L16.686653,8.629869L15.637622,8.629869ZM15.637622,0.914578L16.686653,0.914578L16.686653,4.299385L16.583301,6.144233L15.746142,6.144233L15.637622,4.299385Z"
       fill="rgb(0,0,0)"
       stroke="none"
       stroke-width="0.264583"
       style="fill:#ffffff" />
  </g>
  <g
     id="eiswhfweybi36"
     transform="matrix(-1 0 -0 -1 0 0)"
     opacity="0"
     style="fill:#ffffff">
    <path
       id="eiswhfweybi37"
       d="M-19.134676,-2.227160L-18.085644,-2.227160L-18.085644,-0.914578L-19.134676,-0.914578ZM-19.134676,-8.629869L-18.085644,-8.629869L-18.085644,-5.245063L-18.188997,-3.400215L-19.026156,-3.400215L-19.134676,-5.245063Z"
       fill="rgb(0,0,0)"
       stroke="none"
       stroke-width="0.264583"
       style="fill:#ffffff" />
  </g>
  <g
     id="eiswhfweybi38"
     style="fill:#ffffff">
    <path
       id="eiswhfweybi39"
       d="M4.187385,18.915188L4.554474,18.915188L4.554474,22.019491L4.187385,22.019491Z"
       fill="rgb(0,0,0)"
       stroke="none"
       stroke-width="0.102147"
       style="fill:#ffffff" />
    <path
       id="eiswhfweybi40"
       d="M6.186428,20.042393Q5.891160,20.042393,5.719586,20.273819Q5.548011,20.503251,5.548011,20.904256Q5.548011,21.305262,5.717591,21.536688Q5.889165,21.766119,6.186428,21.766119Q6.479701,21.766119,6.651275,21.534693Q6.822850,21.303267,6.822850,20.904256Q6.822850,20.507241,6.651275,20.275815Q6.479701,20.042393,6.186428,20.042393ZM6.186428,19.731165Q6.665241,19.731165,6.938563,20.042393Q7.211886,20.353622,7.211886,20.904256Q7.211886,21.452896,6.938563,21.766119Q6.665241,22.077348,6.186428,22.077348Q5.705620,22.077348,5.432298,21.766119Q5.160971,21.452896,5.160971,20.904256Q5.160971,20.353622,5.432298,20.042393Q5.705620,19.731165,6.186428,19.731165Z"
       fill="rgb(0,0,0)"
       stroke="none"
       stroke-width="0.102147"
       style="fill:#ffffff" />
    <path
       id="eiswhfweybi41"
       d="M8.684235,20.042393Q8.388967,20.042393,8.217392,20.273819Q8.045818,20.503251,8.045818,20.904256Q8.045818,21.305262,8.215397,21.536688Q8.386972,21.766119,8.684235,21.766119Q8.977508,21.766119,9.149082,21.534693Q9.320657,21.303267,9.320657,20.904256Q9.320657,20.507241,9.149082,20.275815Q8.977508,20.042393,8.684235,20.042393ZM8.684235,19.731165Q9.163048,19.731165,9.436370,20.042393Q9.709692,20.353622,9.709692,20.904256Q9.709692,21.452896,9.436370,21.766119Q9.163048,22.077348,8.684235,22.077348Q8.203427,22.077348,7.930105,21.766119Q7.658777,21.452896,7.658777,20.904256Q7.658777,20.353622,7.930105,20.042393Q8.203427,19.731165,8.684235,19.731165Z"
       fill="rgb(0,0,0)"
       stroke="none"
       stroke-width="0.102147"
       style="fill:#ffffff" />
    <path
       id="eiswhfweybi42"
       d="M10.302223,18.915188L10.671308,18.915188L10.671308,20.748642L11.766592,19.785031L12.235430,19.785031L11.050368,20.830439L12.285306,22.019491L11.806493,22.019491L10.671308,20.928197L10.671308,22.019491L10.302223,22.019491Z"
       fill="rgb(0,0,0)"
       stroke="none"
       stroke-width="0.102147"
       style="fill:#ffffff" />
    <path
       id="eiswhfweybi43"
       d="M13.633962,20.896276Q13.189065,20.896276,13.017490,20.998024Q12.845916,21.099772,12.845916,21.345163Q12.845916,21.540678,12.973599,21.656391Q13.103278,21.770110,13.324729,21.770110Q13.629972,21.770110,13.813517,21.554644Q13.999057,21.337183,13.999057,20.978073L13.999057,20.896273ZM14.366146,20.744652L14.366146,22.019491L13.999057,22.019491L13.999057,21.680332Q13.873368,21.883828,13.685833,21.981585Q13.498298,22.077345,13.226971,22.077345Q12.883822,22.077345,12.680326,21.885820Q12.478826,21.692299,12.478826,21.369101Q12.478826,20.992036,12.730203,20.800511Q12.983575,20.608985,13.484333,20.608985L13.999057,20.608985L13.999057,20.573075Q13.999057,20.319704,13.831472,20.182045Q13.665883,20.042391,13.364630,20.042391Q13.173105,20.042391,12.991555,20.088281Q12.810005,20.134171,12.642420,20.225939L12.642420,19.886780Q12.843921,19.808970,13.033451,19.771067Q13.222981,19.731167,13.402536,19.731167Q13.887334,19.731167,14.126740,19.982544Q14.366146,20.233920,14.366146,20.744654Z"
       fill="rgb(0,0,0)"
       stroke="none"
       stroke-width="0.102147"
       style="fill:#ffffff" />
    <path
       id="eiswhfweybi44"
       d="M15.128257,18.915188L15.495347,18.915188L15.495347,22.019491L15.128257,22.019491Z"
       fill="rgb(0,0,0)"
       stroke="none"
       stroke-width="0.102147"
       style="fill:#ffffff" />
    <path
       id="eiswhfweybi45"
       d="M16.261447,19.785031L16.628537,19.785031L16.628537,22.019491L16.261447,22.019491ZM16.261447,18.915188L16.628537,18.915188L16.628537,19.380036L16.261447,19.380036Z"
       fill="rgb(0,0,0)"
       stroke="none"
       stroke-width="0.102147"
       style="fill:#ffffff" />
    <path
       id="eiswhfweybi46"
       d="M17.131291,19.785031L17.520326,19.785031L18.218595,21.660382L18.916864,19.785031L19.305899,19.785031L18.467977,22.019491L17.969213,22.019491Z"
       fill="rgb(0,0,0)"
       stroke="none"
       stroke-width="0.102147"
       style="fill:#ffffff" />
    <path
       id="eiswhfweybi47"
       d="M21.723903,20.810489L21.723903,20.990044L20.036088,20.990044Q20.060028,21.369104,20.263524,21.568609Q20.469015,21.766119,20.834109,21.766119Q21.045585,21.766119,21.243095,21.714249Q21.442601,21.662379,21.638116,21.558635L21.638116,21.905774Q21.440606,21.989564,21.233120,22.033458Q21.025635,22.077348,20.812164,22.077348Q20.277490,22.077348,19.964266,21.766119Q19.653038,21.454891,19.653038,20.924207Q19.653038,20.375567,19.948306,20.054364Q20.245569,19.731165,20.748322,19.731165Q21.199204,19.731165,21.460556,20.022443Q21.723903,20.311726,21.723903,20.810489ZM21.356813,20.702756Q21.352813,20.401503,21.187234,20.221948Q21.023640,20.042393,20.752312,20.042393Q20.445074,20.042393,20.259534,20.215963Q20.075989,20.389533,20.048058,20.704751Z"
       fill="rgb(0,0,0)"
       stroke="none"
       stroke-width="0.102147"
       style="fill:#ffffff" />
  </g>
  <g
     id="eiswhfweybi48"
     style="fill:#ffffff">
    <path
       id="eiswhfweybi49"
       d="M4.802566,23.302822L4.802566,23.492132Q4.717702,23.448612,4.626312,23.426852Q4.534921,23.405092,4.437002,23.405092Q4.287948,23.405092,4.212877,23.450782Q4.138894,23.496482,4.138894,23.587868Q4.138894,23.657498,4.192205,23.697755Q4.245516,23.736925,4.406538,23.772825L4.475081,23.788055Q4.688327,23.833755,4.777541,23.917525Q4.867844,24.000215,4.867844,24.149266Q4.867844,24.318991,4.732934,24.417998Q4.599112,24.517008,4.364107,24.517008Q4.266188,24.517008,4.159566,24.497428Q4.054031,24.478928,3.936529,24.440848L3.936529,24.234131Q4.047503,24.291791,4.155214,24.321171Q4.262924,24.349461,4.368459,24.349461Q4.509897,24.349461,4.586056,24.301591Q4.662215,24.252631,4.662215,24.164505Q4.662215,24.082905,4.606728,24.039386Q4.552329,23.995866,4.366283,23.955616L4.296652,23.939296Q4.110607,23.900126,4.027920,23.819617Q3.945233,23.738017,3.945233,23.596580Q3.945233,23.424678,4.067087,23.331112Q4.188942,23.237542,4.413067,23.237542Q4.524041,23.237542,4.621960,23.253862Q4.719879,23.270182,4.802566,23.302822Z"
       fill="rgb(0,0,0)"
       stroke="none"
       stroke-width="0.055705"
       style="fill:#ffffff" />
    <path
       id="eiswhfweybi50"
       d="M6.877373,23.407269Q6.716351,23.407269,6.622784,23.533475Q6.529217,23.658593,6.529217,23.877278Q6.529217,24.095963,6.621696,24.222170Q6.715263,24.347288,6.877373,24.347288Q7.037307,24.347288,7.130873,24.221082Q7.224440,24.094875,7.224440,23.877278Q7.224440,23.660769,7.130873,23.534563Q7.037306,23.407269,6.877373,23.407269ZM6.877373,23.237543Q7.138489,23.237543,7.287543,23.407269Q7.436597,23.576994,7.436597,23.877278Q7.436597,24.176474,7.287543,24.347288Q7.138489,24.517014,6.877373,24.517014Q6.615168,24.517014,6.466114,24.347288Q6.318148,24.176474,6.318148,23.877278Q6.318148,23.576994,6.466114,23.407269Q6.615168,23.237543,6.877373,23.237543Z"
       fill="rgb(0,0,0)"
       stroke="none"
       stroke-width="0.055705"
       style="fill:#ffffff" />
    <path
       id="eiswhfweybi51"
       d="M9.601707,22.792557L9.601707,22.959019L9.410222,22.959019Q9.302511,22.959019,9.260080,23.002539Q9.218737,23.046059,9.218737,23.159209L9.218737,23.266920L9.548396,23.266920L9.548396,23.422502L9.218736,23.422502L9.218736,24.485463L9.017459,24.485463L9.017459,23.422501L8.825973,23.422501L8.825973,23.266919L9.017459,23.266919L9.017459,23.182059Q9.017459,22.978605,9.112114,22.886127Q9.206769,22.792557,9.412398,22.792557Z"
       fill="rgb(0,0,0)"
       stroke="none"
       stroke-width="0.055705"
       style="fill:#ffffff" />
    <path
       id="eiswhfweybi52"
       d="M11.146666,22.920939L11.146666,23.266919L11.559012,23.266919L11.559012,23.422501L11.146666,23.422501L11.146666,24.083996Q11.146666,24.233050,11.186926,24.275481Q11.228266,24.317911,11.353388,24.317911L11.559017,24.317911L11.559017,24.485461L11.353388,24.485461Q11.121647,24.485461,11.033520,24.399511Q10.945390,24.312471,10.945390,24.083996L10.945390,23.422501L10.798510,23.422501L10.798510,23.266919L10.945388,23.266919L10.945388,22.920939Z"
       fill="rgb(0,0,0)"
       stroke="none"
       stroke-width="0.055705"
       style="fill:#ffffff" />
    <path
       id="eiswhfweybi53"
       d="M12.926628,23.266919L13.126818,23.266919L13.377054,24.217818L13.626203,23.266919L13.862296,23.266919L14.112532,24.217818L14.361681,23.266919L14.561870,23.266919L14.243090,24.485462L14.006998,24.485462L13.744793,23.486692L13.481501,24.485462L13.245408,24.485462Z"
       fill="rgb(0,0,0)"
       stroke="none"
       stroke-width="0.055705"
       style="fill:#ffffff" />
    <path
       id="eiswhfweybi54"
       d="M16.637766,23.872926Q16.395145,23.872926,16.301578,23.928416Q16.208008,23.983906,16.208008,24.117725Q16.208008,24.224348,16.277638,24.287451Q16.348358,24.349471,16.469124,24.349471Q16.635586,24.349471,16.735680,24.231969Q16.836863,24.113378,16.836863,23.917541L16.836863,23.872931ZM17.037056,23.790236L17.037056,24.485458L16.836867,24.485458L16.836867,24.300501Q16.768327,24.411475,16.666053,24.464786Q16.563783,24.517006,16.415817,24.517006Q16.228683,24.517006,16.117709,24.412559Q16.007822,24.307025,16.007822,24.130771Q16.007822,23.925142,16.144908,23.820695Q16.283082,23.716249,16.556167,23.716249L16.836867,23.716249L16.836867,23.696669Q16.836867,23.558495,16.745477,23.483424Q16.655177,23.407264,16.490889,23.407264Q16.386442,23.407264,16.287435,23.432284Q16.188425,23.457304,16.097038,23.507354L16.097038,23.322397Q16.206924,23.279967,16.310283,23.259297Q16.413642,23.237537,16.511560,23.237537Q16.775941,23.237537,16.906499,23.374623Q17.037057,23.511709,17.037057,23.790234Z"
       fill="rgb(0,0,0)"
       stroke="none"
       stroke-width="0.055705"
       style="fill:#ffffff" />
    <path
       id="eiswhfweybi55"
       d="M19.374068,23.454052Q19.340338,23.434472,19.300088,23.425762Q19.260918,23.415962,19.213048,23.415962Q19.043322,23.415962,18.951932,23.526936Q18.861632,23.636823,18.861632,23.843540L18.861632,24.485451L18.660354,24.485451L18.660354,23.266908L18.861632,23.266908L18.861632,23.456217Q18.924732,23.345243,19.025918,23.291931Q19.127100,23.237531,19.271802,23.237531Q19.292472,23.237531,19.317502,23.240831Q19.342522,23.243031,19.372992,23.248431Z"
       fill="rgb(0,0,0)"
       stroke="none"
       stroke-width="0.055705"
       style="fill:#ffffff" />
    <path
       id="eiswhfweybi56"
       d="M21.800294,23.826143L21.800294,23.924063L20.879858,23.924063Q20.892918,24.130780,21.003888,24.239578Q21.115951,24.347289,21.315052,24.347289Q21.430379,24.347289,21.538089,24.318999Q21.646888,24.290709,21.753510,24.234139L21.753510,24.423448Q21.645800,24.469148,21.532649,24.493078Q21.419499,24.517018,21.303084,24.517018Q21.011504,24.517018,20.840691,24.347292Q20.670965,24.177566,20.670965,23.888162Q20.670965,23.588966,20.831987,23.413801Q20.994097,23.237547,21.268269,23.237547Q21.514154,23.237547,21.656680,23.396393Q21.800294,23.554151,21.800294,23.826147ZM21.600104,23.767393Q21.597904,23.603107,21.507624,23.505188Q21.418414,23.407268,21.270443,23.407268Q21.102893,23.407268,21.001710,23.501918Q20.901616,23.596568,20.886384,23.768475Z"
       fill="rgb(0,0,0)"
       stroke="none"
       stroke-width="0.055705"
       style="fill:#ffffff" />
  </g>
</svg>
