<?xml version="1.0" encoding="UTF-8" standalone="no"?>
<!-- Created with Inkscape (http://www.inkscape.org/) -->

<svg
   xmlns:dc="http://purl.org/dc/elements/1.1/"
   xmlns:cc="http://creativecommons.org/ns#"
   xmlns:rdf="http://www.w3.org/1999/02/22-rdf-syntax-ns#"
   xmlns:svg="http://www.w3.org/2000/svg"
   xmlns="http://www.w3.org/2000/svg"
   xmlns:sodipodi="http://sodipodi.sourceforge.net/DTD/sodipodi-0.dtd"
   xmlns:inkscape="http://www.inkscape.org/namespaces/inkscape"
   width="0.7860148in"
   height="0.78332925in"
   viewBox="0 0 19.964776 19.896563"
   version="1.1"
   id="svg8"
   sodipodi:docname="solosquare_black_path.svg"
   inkscape:version="0.92.2 5c3e80d, 2017-08-06">
  <defs
     id="defs2" />
  <sodipodi:namedview
     id="base"
     pagecolor="#ffffff"
     bordercolor="#666666"
     borderopacity="1.0"
     inkscape:pageopacity="0.0"
     inkscape:pageshadow="2"
     inkscape:zoom="3.7631878"
     inkscape:cx="41.763043"
     inkscape:cy="12.220095"
     inkscape:document-units="mm"
     inkscape:current-layer="layer1"
     showgrid="false"
     inkscape:window-width="1440"
     inkscape:window-height="855"
     inkscape:window-x="0"
     inkscape:window-y="1"
     inkscape:window-maximized="1"
     fit-margin-top="0.05"
     fit-margin-left="0.05"
     fit-margin-right="0.05"
     fit-margin-bottom="0.05"
     units="in" />
  <metadata
     id="metadata5">
    <rdf:RDF>
      <cc:Work
         rdf:about="">
        <dc:format>image/svg+xml</dc:format>
        <dc:type
           rdf:resource="http://purl.org/dc/dcmitype/StillImage" />
        <dc:title></dc:title>
      </cc:Work>
    </rdf:RDF>
  </metadata>
  <g
     inkscape:label="Layer 1"
     inkscape:groupmode="layer"
     id="layer1"
     transform="translate(260.89346,-22.636785)">
    <path
       style="font-style:normal;font-weight:normal;font-size:medium;line-height:1.25;font-family:sans-serif;letter-spacing:0px;word-spacing:0px;fill:#000000;fill-opacity:1;stroke:none;stroke-width:0.99999994"
       d="m 35.779297,2.9199219 v 4.9609375 h 3.964844 V 5.3769531 c 0.585741,0.9393383 1.052637,1.8491581 1.398437,2.7285157 0.455736,1.1718752 0.683594,2.2721352 0.683594,3.3007812 0,1.406249 -0.358074,2.532552 -1.074219,3.378906 -0.375028,0.450034 -0.814111,0.775873 -1.310547,0.990235 0.118989,-0.598307 0.185547,-1.26434 0.185547,-2.015625 v -3.007813 h -3.730469 v 2.402344 c 0,0.677085 -0.01954,1.210938 -0.05859,1.601562 -0.02382,0.23822 -0.06908,0.412785 -0.107422,0.607422 -0.513617,-0.328454 -1.052926,-0.7895 -1.619141,-1.398437 L 32.37305,12.207031 c -0.02063,-0.02158 -0.04001,-0.03728 -0.06055,-0.05859 0.09418,-0.425258 0.148438,-0.857212 0.148438,-1.300782 0,-2.0703116 -0.729157,-3.7369799 -2.1875,-4.9999998 C 28.828121,4.5846339 26.907536,3.953125 24.511719,3.953125 c -1.341153,0 -2.643233,0.1822917 -3.90625,0.546875 -1.250016,0.3645833 -2.486976,0.9179679 -3.710938,1.6601562 v 3.078125 h -1.552734 v 3.9648438 h 4.960937 V 9.2382812 h -2.503906 c 0.93935,-0.5857329 1.849158,-1.0526216 2.728516,-1.3984374 1.171855,-0.4557279 2.27212,-0.6835938 3.300781,-0.6835938 1.406236,0 2.532544,0.3580739 3.378906,1.0742188 0.450029,0.3750297 0.775875,0.8141105 0.990235,1.3105468 C 27.598987,9.4220482 26.932873,9.3554688 26.181641,9.3554688 h -3.007813 v 3.7304692 h 2.402344 c 0.67709,0 1.210936,0.01954 1.601562,0.05859 0.238222,0.02382 0.412785,0.06907 0.607422,0.107422 -0.328499,0.513924 -0.789105,1.052558 -1.398437,1.619141 l -1.757813,1.738281 c -0.02159,0.02063 -0.03728,0.04001 -0.05859,0.06055 -0.42466,-0.0939 -0.857852,-0.148438 -1.300781,-0.148438 -2.070299,0 -3.736982,0.729167 -5,2.1875 -1.263017,1.445312 -1.894531,3.365887 -1.894531,5.761719 0,1.341148 0.182302,2.64323 0.546875,3.90625 0.364573,1.250001 0.917958,2.48698 1.660156,3.710938 h 3.078125 v 1.552734 H 25.625 v -4.960937 h -3.964844 v 2.503906 c -0.585741,-0.939337 -1.052637,-1.849158 -1.398437,-2.728516 -0.455736,-1.171875 -0.683594,-2.272135 -0.683594,-3.300781 0,-1.406251 0.358074,-2.532554 1.074219,-3.378906 0.375028,-0.450036 0.814111,-0.775872 1.310547,-0.990235 -0.118965,0.598277 -0.185547,1.26439 -0.185547,2.015625 v 3.007813 h 3.730468 V 23.40625 c 0,-0.677085 0.01954,-1.210938 0.05859,-1.601562 0.02382,-0.23822 0.06908,-0.412785 0.107422,-0.607422 0.513926,0.328486 1.052547,0.789092 1.619141,1.398437 l 1.738281,1.757813 c 0.02096,0.02194 0.03968,0.03889 0.06055,0.06055 -0.09384,0.424511 -0.148438,0.856073 -0.148438,1.298829 0,2.070311 0.729157,3.73698 2.1875,5 1.445317,1.263022 3.365877,1.894531 5.761719,1.894531 1.341128,0 2.643233,-0.182292 3.90625,-0.546875 1.250016,-0.364583 2.486975,-0.917968 3.710938,-1.660156 V 27.322266 H 46.0625 v -3.964844 h -4.960938 v 3.964844 h 2.503907 c -0.93935,0.585733 -1.849158,1.052621 -2.728516,1.398437 -1.171855,0.455728 -2.27212,0.683594 -3.300781,0.683594 -1.406236,0 -2.532544,-0.358074 -3.378906,-1.074219 -0.450029,-0.37503 -0.775876,-0.81411 -0.990235,-1.310547 0.598413,0.11904 1.264166,0.185547 2.015625,0.185547 h 3.007813 v -3.730469 h -2.402344 c -0.67709,0 -1.210936,-0.01954 -1.601563,-0.05859 -0.238221,-0.02382 -0.412784,-0.06907 -0.607421,-0.107422 0.328482,-0.513924 0.789105,-1.052558 1.398437,-1.619141 l 1.757813,-1.738281 c 0.02159,-0.02063 0.03728,-0.04001 0.05859,-0.06055 0.425258,0.09418 0.857213,0.148437 1.300782,0.148437 2.070299,0 3.736982,-0.729166 5,-2.1875 1.263017,-1.445311 1.894531,-3.365883 1.894531,-5.761718 0,-1.341145 -0.182302,-2.6432304 -0.546875,-3.9062502 C 44.117849,6.9335931 43.564464,5.6966159 42.822266,4.4726562 H 39.744141 V 2.9199219 Z M 58.869141,3.4570312 V 16.25 l 0.28125,4.794922 h -8.376953 v 3.964844 h 12.792968 l 4.794922,-0.28125 v 8.375 h 3.964844 V 20.310547 l -0.28125,-4.794922 h 8.375 V 11.550781 H 67.626953 l -4.792969,0.28125 V 3.4570312 Z m 9.492187,0.4863282 v 4.9609375 h 3.964844 V 3.9433594 Z M 51.259766,11.550781 v 3.964844 h 4.960937 V 11.550781 Z M 30.679688,15.222656 32.294922,16.875 c 0.514048,0.537954 1.000187,0.993029 1.464844,1.382812 l -1.652344,1.615235 c -0.537945,0.514046 -0.993031,1.000189 -1.382813,1.464844 L 29.109375,19.685547 C 28.595327,19.147593 28.109188,18.692518 27.644531,18.302734 L 29.296875,16.6875 c 0.537896,-0.513988 0.993057,-1.000235 1.382813,-1.464844 z m 32.154296,0.02539 4.792969,0.267578 h 1.003906 l -0.269531,4.794922 v 1.003906 l -4.794922,-0.26953 H 62.564453 L 62.833984,16.25 Z m 12.138672,5.796875 v 3.964844 h 4.960938 V 21.044922 Z M 58.869141,27.65625 v 4.960938 h 3.964843 V 27.65625 Z m -29.423829,9.367188 c -1.626355,0 -2.961979,0.578976 -4.005859,1.736328 -0.859473,0.959851 -1.355284,2.150648 -1.501953,3.568359 -0.14778,-0.03933 -0.296409,-0.08727 -0.443359,-0.119141 -0.620296,-0.136163 -1.243264,-0.205078 -1.871094,-0.205078 -1.391849,0 -2.507997,0.374172 -3.347656,1.123047 -0.839635,0.741312 -1.259766,1.725738 -1.259766,2.951172 0,0.453863 0.09398,0.917976 0.283203,1.394531 0.189102,0.468994 0.465039,0.941411 0.828125,1.417969 -1.013619,0.748873 -1.772487,1.551472 -2.279297,2.40625 -0.506809,0.847214 -0.761718,1.754414 -0.761718,2.722656 0,1.626346 0.578986,2.961972 1.736328,4.00586 0.967876,0.866668 2.17201,1.365932 3.605468,1.507812 -0.05422,0.193007 -0.114728,0.386527 -0.15625,0.578125 -0.136063,0.620281 -0.203125,1.245202 -0.203125,1.873047 0,1.391849 0.374172,2.508009 1.123047,3.347656 0.741317,0.83965 1.723795,1.259766 2.949219,1.259766 0.453871,0 0.919936,-0.09605 1.396484,-0.285156 0.468989,-0.18911 0.941396,-0.465034 1.417969,-0.828125 0.748876,1.013629 1.551472,1.774435 2.40625,2.28125 0.847194,0.506814 1.754392,0.759765 2.722656,0.759765 1.626331,0 2.961979,-0.578976 4.00586,-1.736328 0.911699,-1.018177 1.419661,-2.292801 1.529297,-3.826172 0.09676,0.02412 0.194615,0.05722 0.291015,0.07813 0.620296,0.136164 1.245217,0.205078 1.873047,0.205078 1.391849,0 2.507997,-0.376124 3.347656,-1.125 0.839635,-0.741311 1.257813,-1.723785 1.257813,-2.949218 0,-0.453864 -0.09398,-0.919927 -0.283203,-1.396485 -0.189103,-0.468991 -0.465039,-0.94141 -0.828125,-1.417969 1.013619,-0.748875 1.77444,-1.549521 2.28125,-2.404296 0.506834,-0.847214 0.759765,-1.756368 0.759765,-2.72461 0,-1.626346 -0.578961,-2.960018 -1.736328,-4.003906 -0.922591,-0.826118 -2.060641,-1.318762 -3.40625,-1.486328 0.02506,-0.100126 0.06041,-0.201037 0.08203,-0.300781 0.136063,-0.620281 0.203126,-1.245202 0.203126,-1.873047 0,-1.391849 -0.374172,-2.508009 -1.123047,-3.347656 -0.741292,-0.83965 -1.72377,-1.259766 -2.949219,-1.259766 -0.453846,0 -0.919911,0.09605 -1.396484,0.285156 -0.468989,0.18911 -0.941421,0.465033 -1.417969,0.828125 -0.748876,-1.013629 -1.551472,-1.774435 -2.40625,-2.28125 -0.847219,-0.506814 -1.754417,-0.759765 -2.722657,-0.759765 z m 32.550782,0.402343 v 7.658203 h -0.765625 v -2.005859 h -3.320313 v 2.005859 h -7.658203 v 3.320313 h 7.658203 v 0.765625 h -2.005859 v 3.28125 h 2.005859 v 0.640625 h -7.658203 v 3.28125 h 7.658203 v 0.765625 h -2.005859 v 3.320312 h 2.005859 v 7.658204 h 3.320313 v -7.658204 h 0.765625 v 2.00586 h 3.28125 v -2.00586 h 0.640625 v 7.658204 h 3.28125 v -7.658204 h 0.765625 v 2.00586 h 3.320312 v -2.00586 h 7.658203 v -3.320312 h -7.658203 v -0.765625 h 2.00586 v -3.28125 h -2.00586 v -0.640625 h 7.658203 v -3.28125 h -7.658203 v -0.765625 h 2.00586 v -3.320313 h -2.00586 v -7.658203 h -3.320312 v 7.658203 h -0.765625 v -2.005859 h -3.28125 v 2.005859 h -0.640625 v -7.658203 z m -32.414063,1.78711 c 0.665676,0 1.301097,0.158858 1.90625,0.476562 0.612712,0.325269 1.225179,0.831171 1.837891,1.519531 l -6.160156,6.013672 c -0.484032,-0.552199 -0.847702,-1.141686 -1.089844,-1.769531 -0.234583,-0.627845 -0.351563,-1.300912 -0.351563,-2.019531 0,-1.210303 0.365852,-2.215752 1.09961,-3.017578 0.733732,-0.801827 1.653409,-1.203125 2.757812,-1.203125 z m 7.830078,1.894531 c 0.665651,0 1.205044,0.246595 1.621094,0.738281 0.42361,0.499251 0.636719,1.145191 0.636719,1.939453 0,0.514379 -0.09593,1.07038 -0.285156,1.667969 -0.02484,0.08176 -0.0637,0.169064 -0.0918,0.251953 -0.686409,0.06573 -1.340996,0.211474 -1.960938,0.445313 -0.862362,0.332832 -1.687913,0.836533 -2.474609,1.509765 l -1.621094,-1.667968 h -1.896484 l 3.257812,-3.181641 c 0.711055,-0.688368 1.258743,-1.146124 1.644532,-1.373047 0.393348,-0.219364 0.784132,-0.330078 1.169921,-0.330078 z m -15.5625,2.689453 c 0.514369,0 1.070375,0.0941 1.667969,0.283203 0.141753,0.04306 0.290391,0.107303 0.435547,0.160156 0.07388,0.616094 0.208107,1.207972 0.419922,1.769532 0.332825,0.862342 0.836531,1.685957 1.509765,2.472656 l -1.667968,1.623047 v 2.185547 L 20.873047,48.869141 C 20.18477,48.158088 19.727024,47.60844 19.5,47.222656 c -0.219465,-0.393348 -0.328125,-0.782182 -0.328125,-1.167968 0,-0.665666 0.244637,-1.207005 0.736328,-1.623047 0.499251,-0.423607 1.147151,-0.634766 1.941406,-0.634766 z m 8.998047,2.675781 2.69336,2.753906 c -0.195763,0.265225 -0.375129,0.531847 -0.546875,0.798829 -0.746799,-0.0618 -1.463687,-0.189197 -2.140625,-0.408203 -0.763994,-0.249626 -1.483016,-0.59667 -2.15625,-1.042969 z m 9.060547,1.029297 c 1.210306,0 2.215764,0.365862 3.017578,1.099609 0.80184,0.733748 1.203125,1.653412 1.203125,2.757813 0,0.665668 -0.158855,1.301097 -0.476562,1.90625 -0.325266,0.612714 -0.833107,1.225174 -1.521485,1.837891 l -6.013671,-6.160157 c 0.552188,-0.484117 1.143629,-0.847777 1.771484,-1.089843 0.627855,-0.234507 1.300917,-0.351563 2.019531,-0.351563 z m 21.322266,0.902344 h 0.765625 v 0.765625 h -0.765625 z m 4.046875,0 h 0.640625 v 0.765625 h -0.640625 z m 3.921875,0 h 0.765625 v 0.765625 h -0.765625 z m -41.75,1.394531 c 0.220671,0.16288 0.442173,0.314684 0.664062,0.460938 -0.05117,0.82552 -0.191622,1.611866 -0.43164,2.353515 -0.249626,0.764004 -0.59861,1.483018 -1.044922,2.15625 l -2.085938,-2.134765 z m -8.175781,0.339844 6.013671,6.162109 c -0.552189,0.484117 -1.141676,0.847778 -1.769531,1.089844 -0.62783,0.234507 -1.300892,0.351563 -2.019531,0.351563 -1.210306,0 -2.217717,-0.367816 -3.019531,-1.101563 -0.80184,-0.733747 -1.201172,-1.653412 -1.201172,-2.757813 0,-0.665668 0.158855,-1.301097 0.476562,-1.90625 0.325292,-0.612714 0.831179,-1.225173 1.519532,-1.83789 z m 15.49414,0.335937 2.294922,2.34961 -2.982422,2.919922 c -0.326774,-0.241189 -0.654935,-0.457376 -0.984375,-0.66211 h 0.185547 c 0.0453,-0.862342 0.191705,-1.679604 0.441406,-2.451172 0.249625,-0.764003 0.59861,-1.483017 1.044922,-2.15625 z m -4.714844,0.841797 c 0.09661,0.04209 0.192233,0.08987 0.289063,0.128906 0.539204,0.21735 1.08277,0.382846 1.628906,0.507813 -0.02343,0.05556 -0.05179,0.110382 -0.07422,0.166016 -0.270752,0.671547 -0.464414,1.348955 -0.591796,2.03125 -0.03919,-0.01631 -0.07796,-0.03692 -0.117188,-0.05273 -0.616919,-0.248669 -1.239252,-0.428896 -1.865234,-0.55664 0.06262,-0.139127 0.129277,-0.278378 0.185546,-0.417969 0.240944,-0.597612 0.417517,-1.200517 0.544922,-1.806641 z m 31.177735,1.134766 h 0.765625 v 0.640625 h -0.765625 z m 4.046875,0 h 0.640625 v 0.640625 h -0.640625 z m 3.921875,0 h 0.765625 v 0.640625 H 69.199219 Z M 37.314453,53.082031 40.53125,56.375 c 0.688277,0.711053 1.146023,1.258747 1.373047,1.644531 0.219464,0.393348 0.330078,0.784136 0.330078,1.169922 0,0.665666 -0.24659,1.205051 -0.738281,1.621094 -0.499251,0.423607 -1.145198,0.636719 -1.939453,0.636719 -0.514369,0 -1.070375,-0.09605 -1.667969,-0.285157 -0.112361,-0.03413 -0.231204,-0.08667 -0.345703,-0.126953 -0.08027,-0.519879 -0.205656,-1.021921 -0.386719,-1.501953 -0.332825,-0.862342 -0.836531,-1.685958 -1.509766,-2.472656 L 37.314453,55.4375 Z m -9.080078,2.400391 c 0.859441,0.04587 1.672218,0.194499 2.441406,0.443359 0.764019,0.249625 1.483016,0.596667 2.15625,1.042969 l -2.0625,2.015625 -2.90625,-2.966797 c 0.131221,-0.177781 0.250664,-0.356585 0.371094,-0.535156 z m 32.996094,0.890625 h 0.765625 v 0.765625 h -0.765625 z m 4.046875,0 h 0.640625 v 0.765625 h -0.640625 z m 3.921875,0 h 0.765625 v 0.765625 H 69.199219 Z M 26.546875,57.582031 28.169922,59.25 h 2.326172 l -3.564453,3.482422 c -0.711055,0.688368 -1.258768,1.146124 -1.644532,1.373047 -0.393373,0.219364 -0.784158,0.330078 -1.169921,0.330078 -0.665676,0 -1.205044,-0.246595 -1.621094,-0.738281 -0.42361,-0.499251 -0.636719,-1.145191 -0.636719,-1.939454 0,-0.514378 0.09593,-1.070382 0.285156,-1.667968 0.05763,-0.189717 0.139674,-0.388169 0.214844,-0.583985 0.596283,-0.07566 1.169896,-0.208517 1.714844,-0.414062 0.862337,-0.332833 1.68596,-0.836534 2.472656,-1.509766 z m 7.816406,0.738281 c 0.484057,0.552202 0.847702,1.141687 1.089844,1.769532 0.234583,0.627845 0.351563,1.300914 0.351563,2.019531 0,1.210303 -0.365878,2.215751 -1.09961,3.017578 -0.733757,0.801827 -1.653409,1.203125 -2.757812,1.203125 -0.665676,0 -1.301098,-0.158858 -1.90625,-0.476562 -0.612712,-0.325269 -1.225179,-0.831171 -1.837891,-1.519532 z"
       transform="matrix(0.26458333,0,0,0.26458333,-263.61495,23.134222)"
       id="path3409"
       inkscape:connector-curvature="0"
       sodipodi:nodetypes="cccccsccsccscccccscscccccccccsccsccscccccscscccccccccsccsccscccccscscccccccccsccsccscccccscsccccccccccccccccccccccccccccccccccccccccccccccccccccccccccccscccscscccscccscscccscccscscccscccscscccscccccccccccccccccccccccccccccccccccccccccccccccccccccccccccccsccccscsscsccccccccssccccccccscsccccccscsccccsccccccccccccccccccccccccscsccccccccccccccccccccccccccccccccccccscsccccccccccccccccccccccccccccccccscsccccccscsccc" />
  </g>
</svg>
